<svg width="512" height="512" viewBox="0 0 512 512" fill="none" xmlns="http://www.w3.org/2000/svg">
<path d="M249.262 173.176L249.842 180.542C250.06 182.208 249.996 184.513 249.998 186.25L249.988 186.42C250.05 193.349 249.902 209.787 248.047 216.109L248.041 216.626L247.655 217.28C247.224 218.577 246.328 220.5 246.877 221.687C247.724 221.856 248.522 222.305 249.233 222.451C252.02 223.022 258.913 224.124 261.493 223.022C262.928 222.643 264.3 222.048 265.675 221.482C266.238 220.128 265.663 218.681 265.243 217.324L264.61 215.546C263.783 212.249 263.808 208.496 263.528 205.097C263.018 198.923 263.013 192.787 262.99 186.595L263.005 182.84C263.003 182.012 263.03 181.8 263.143 181.011C263.345 178.951 263.215 175.6 263.988 173.767C264.138 173.415 264.718 173.441 265.223 173.352C293.9 174.543 334.413 179.543 355.308 201.928C360.028 206.983 363.073 213.356 363.618 220.318C364.673 228.48 363.848 244.492 362.243 252.491C364.008 256.645 364.27 260.932 364.275 265.391C364.268 273.147 364.585 285.229 362.665 292.565C363.753 295.797 364.49 300.27 364.24 303.68C364.593 313.366 364.133 322.93 363.193 332.545C363.08 333.72 363.695 336.352 363.893 337.607C364.245 339.761 364.378 341.942 364.29 344.12C364.273 351.727 364.355 359.352 363.673 366.936C363.368 370.332 362.878 372.558 363.623 375.954L363.96 377.53C364.083 379.131 364.243 380.788 364.248 382.392C364.3 397.483 365.423 412.624 356.305 425.193C350.223 432.755 342.633 438.954 334.02 443.391C332.56 443.519 329.008 445.495 327.365 446.29C323.918 447.957 306.993 454.086 303.685 453.915C302.745 454.49 288.153 457.283 285.825 457.509C273.348 458.716 257.045 459.579 244.651 458.616C219.667 456.678 192.742 451.485 171.321 438.003C164.693 433.832 160.817 429.224 155.904 423.615L154.924 422.101C153.187 419.172 152.51 417.817 151.434 414.584C148.971 407.319 150.037 402.046 149.035 395.417C148.977 387.702 148.643 381.689 151.369 374.293C149.717 367.318 149.013 354.511 149.279 347.197C149.085 344.707 149.626 340.619 150.318 338.225C150.438 337.344 150.611 336.942 150.902 336.119L151.411 333.622C149.498 330.979 148.691 307.568 149.101 302.963C149.314 300.568 150.872 295.89 150.882 293.927C150.893 291.724 150.015 287.994 149.776 285.53C149.113 278.919 148.862 272.273 149.023 265.63C148.901 264.164 149.456 260.994 149.698 259.388C150.22 257.33 150.572 256.047 151.315 254.072C150.999 252.614 150.714 251.148 150.458 249.679C149.682 245.12 149.429 240.064 149.211 235.456C148.697 224.602 148.045 216.196 154.65 206.815C155.196 205.687 157.539 202.906 158.471 201.925C179.611 179.684 220.245 173.913 249.262 173.176Z" fill="#C18127"/>
<path d="M249.262 173.176L249.842 180.542C250.06 182.208 249.995 184.513 249.998 186.25L249.987 186.42C250.05 193.349 249.902 209.787 248.046 216.109L248.041 216.626L247.655 217.28C247.224 218.577 246.328 220.5 246.877 221.687C247.723 221.856 248.522 222.305 249.233 222.451C252.02 223.022 258.912 224.124 261.492 223.022C262.927 222.643 264.3 222.048 265.675 221.482C266.237 220.128 265.662 218.681 265.242 217.324L264.61 215.546C263.782 212.249 263.807 208.496 263.527 205.097C263.017 198.923 263.012 192.787 262.99 186.595L263.005 182.84C263.002 182.012 263.03 181.8 263.142 181.011C263.345 178.951 263.215 175.6 263.987 173.767C264.137 173.415 264.717 173.441 265.222 173.352C293.9 174.543 334.412 179.543 355.307 201.928C360.027 206.983 363.072 213.356 363.617 220.318C362.06 223.726 362 227.563 360.065 231.069C353.102 243.67 339.39 251.763 326.475 257.172C310.215 263.697 292.3 267.326 274.895 268.293C272.452 268.581 266.095 268.647 264.61 269.066C260.117 269.189 256.762 269.261 252.282 269.111C250.565 269.128 244.363 268.938 242.84 268.584C236.498 268.682 212.681 265.213 206.598 263.04C202.516 262.156 199.011 260.851 195.059 259.78C193.101 259.662 186.862 256.881 184.298 256.088C184.066 255.809 184.275 256.022 183.784 255.706C178.069 252.034 171.536 249.439 166.203 245.16C165.836 244.866 165.43 243.957 165.248 243.526C164.228 242.597 162.846 241.526 161.754 240.635C158.295 238.207 157.743 236.87 155.09 234.896C155.048 233.208 150.724 230.535 151.249 223.045C150.975 220.251 150.747 217.626 151.376 214.858C151.966 212.261 154.326 209.422 154.65 206.815C155.196 205.687 157.538 202.906 158.471 201.925C179.611 179.684 220.244 173.913 249.262 173.176Z" fill="url(#paint0_linear_7039_51900)"/>
<path d="M249.262 173.176L249.842 180.542L249.736 181.57C249.749 181.565 234.957 182.893 233.889 182.893C227.253 183.93 222.411 184.728 215.876 186.339C213.716 186.55 209.458 187.997 207.317 188.748C196.671 192.478 185.176 197.809 177.785 206.595C175.581 209.216 174.174 212.021 172.946 215.171C172.435 222.205 173.336 227.445 178.372 232.88C193.049 248.717 221.622 255.548 242.244 256.976C265.967 258.618 291.235 256.344 313.127 246.841C315.125 245.974 320.7 243.46 322.287 242.145C322.55 241.195 322.77 241.399 323.525 240.649C327.752 236.45 333.6 230.966 333.947 224.625C334.325 217.742 332.065 212.916 327.547 208.048C312.967 192.342 283.135 187.76 262.99 186.595L263.005 182.84C263.002 182.012 263.03 181.8 263.142 181.011C263.345 178.951 263.215 175.6 263.987 173.767C264.137 173.415 264.717 173.441 265.222 173.352C293.9 174.543 334.412 179.543 355.307 201.928C360.027 206.983 363.072 213.356 363.617 220.318C362.06 223.726 362 227.563 360.065 231.069C353.102 243.67 339.39 251.763 326.475 257.172C310.215 263.697 292.3 267.326 274.895 268.293C272.452 268.581 266.095 268.647 264.61 269.066C260.117 269.189 256.762 269.261 252.282 269.111C250.565 269.128 244.363 268.938 242.84 268.584C236.498 268.682 212.681 265.213 206.598 263.04C202.516 262.156 199.011 260.851 195.059 259.78C193.101 259.662 186.862 256.881 184.298 256.088C184.066 255.809 184.275 256.022 183.784 255.706C178.069 252.034 171.536 249.439 166.203 245.16C165.836 244.866 165.43 243.957 165.248 243.526C164.228 242.597 162.846 241.526 161.754 240.635C158.295 238.207 157.743 236.87 155.09 234.896C155.048 233.208 150.724 230.535 151.249 223.045C150.975 220.251 150.747 217.626 151.376 214.858C151.966 212.261 154.326 209.422 154.65 206.815C155.196 205.687 157.538 202.906 158.471 201.925C179.611 179.684 220.244 173.913 249.262 173.176Z" fill="#F9D17B"/>
<path d="M249.262 173.176L249.842 180.542L249.736 181.57C249.749 181.565 234.957 182.893 233.889 182.893C227.253 183.93 222.411 184.728 215.876 186.339C213.716 186.55 209.458 187.997 207.317 188.748C196.671 192.478 185.176 197.809 177.785 206.595C175.581 209.216 174.174 212.021 172.946 215.171C172.68 209.472 177.529 204.118 181.585 200.664C183.116 199.359 184.95 197.54 186.758 196.721C189.825 194.513 193.12 193.474 196.339 191.898C209.435 185.487 223.567 183.126 237.85 181.306C239.743 181.065 247.215 180.972 248.181 179.96L248.136 179.618C246.968 179.249 241.388 179.649 239.886 179.723C222.613 180.577 205.422 184.682 190.054 192.767C182.3 196.847 174.074 202.711 171.367 211.498C169.673 216.993 170.291 221.622 172.914 226.646C173.706 228.163 177.016 232.764 177.074 232.965C176.018 234.183 171.048 237.132 169.371 237.601C163.709 237.244 165.026 239.872 163.28 239.986L162.657 239.655C162.803 240.348 165.289 242.128 165.993 242.668C168.989 244.97 172.361 246.763 174.795 249.427C172.049 248.51 167.732 245.269 165.248 243.526C164.228 242.597 162.846 241.526 161.754 240.635C158.295 238.207 157.743 236.87 155.09 234.896C155.048 233.208 150.724 230.535 151.249 223.045C150.975 220.251 150.747 217.626 151.376 214.858C151.966 212.261 154.326 209.422 154.65 206.815C155.196 205.687 157.538 202.906 158.471 201.925C179.611 179.684 220.244 173.913 249.262 173.176Z" fill="url(#paint1_linear_7039_51900)"/>
<path d="M186.757 196.72C186.109 197.278 184.573 198.572 184.15 199.272L184.301 199.614C184.861 199.556 187.068 197.973 187.681 197.573C200.099 189.473 215.036 185.468 229.525 183.138C230.968 182.906 232.48 182.602 233.889 182.892C227.253 183.929 222.411 184.727 215.876 186.338C213.716 186.548 209.458 187.996 207.317 188.746C196.671 192.476 185.176 197.808 177.785 206.594C175.58 209.215 174.174 212.02 172.946 215.17C172.68 209.47 177.529 204.117 181.584 200.663C183.116 199.358 184.95 197.538 186.757 196.72Z" fill="#FCCD6B"/>
<path d="M151.249 223.043C152.199 229.947 158.434 235.707 161.755 240.634C158.296 238.205 157.743 236.869 155.09 234.894C155.048 233.207 150.724 230.534 151.249 223.043Z" fill="#C88E3E"/>
<path d="M263.005 182.841C267.138 182.206 270.823 182.811 274.968 183.252C278.143 184.063 282.025 184.061 285.268 184.572C291.57 185.566 299.85 186.979 305.855 188.976C307.233 188.951 317.625 192.354 319.378 193.177C324.16 195.427 330.533 199.165 334.485 202.824C336.355 204.577 338.703 207.862 340.478 209.058C340.91 210.041 341.175 210.566 341.425 211.599C342.748 214.799 342.115 220.616 340.715 223.796C336.875 232.516 329.86 237.277 322.288 242.146C322.55 241.197 322.77 241.401 323.525 240.65C327.753 236.452 333.6 230.968 333.948 224.627C334.325 217.744 332.065 212.918 327.548 208.05C312.968 192.344 283.135 187.762 262.99 186.597L263.005 182.841Z" fill="url(#paint2_linear_7039_51900)"/>
<path d="M305.855 188.973C307.233 188.948 317.625 192.35 319.378 193.174C324.16 195.424 330.533 199.161 334.485 202.821C336.355 204.574 338.703 207.859 340.478 209.055C340.91 210.038 341.175 210.563 341.425 211.596C340.79 211.065 340.108 210.018 339.518 209.363C335.943 205.399 333.775 202.683 329.215 199.846C321.703 195.17 314.088 192.042 305.855 188.973Z" fill="#B87E36"/>
<path d="M274.968 183.25C278.683 182.251 287.6 184.145 289.06 183.515C302.493 184.547 335.748 195.742 340.478 209.056C338.703 207.861 336.355 204.576 334.485 202.822C330.533 199.163 324.16 195.425 319.378 193.176C317.625 192.352 307.233 188.949 305.855 188.974C299.85 186.977 291.57 185.565 285.268 184.57C282.025 184.059 278.143 184.061 274.968 183.25Z" fill="#C88E3E"/>
<path d="M201.651 260.23C208.521 261.746 215.112 263.594 222.128 264.808C227.858 265.802 234.036 266.161 239.639 267.157C241.901 267.055 244.117 267.373 246.374 267.361C249.285 267.996 249.995 267.496 252.283 269.113C250.565 269.13 244.364 268.939 242.841 268.585C236.499 268.683 212.681 265.215 206.598 263.041C204.922 261.608 202.876 261.337 201.651 260.23Z" fill="url(#paint3_linear_7039_51900)"/>
<path d="M239.639 267.157C241.901 267.054 244.116 267.373 246.373 267.361C249.285 267.995 249.995 267.496 252.283 269.112C250.565 269.13 244.363 268.939 242.84 268.585C241.718 268.058 237.186 267.438 236.053 267.687L236.376 267.667C236.758 267.381 238.994 267.222 239.639 267.157Z" fill="#ECB247"/>
<path d="M165.248 243.527C167.732 245.27 172.05 248.512 174.796 249.429C176.614 249.919 182.401 253.191 184.685 254.217C185.819 255.261 188.44 256.479 189.914 257.176L189.715 257.151C191.244 257.829 193.772 258.873 195.059 259.781C193.101 259.663 186.862 256.883 184.299 256.089C184.066 255.811 184.275 256.024 183.785 255.708C178.069 252.036 171.536 249.441 166.203 245.162C165.837 244.868 165.431 243.959 165.248 243.527Z" fill="#C88E3E"/>
<path d="M246.373 267.359C252.38 267.357 258.387 267.447 264.39 267.633C267.787 267.703 271.597 267.374 274.785 268.275C274.822 268.281 274.857 268.286 274.895 268.293C272.452 268.582 266.095 268.647 264.61 269.066C260.117 269.189 256.762 269.262 252.282 269.111C249.995 267.495 249.285 267.994 246.373 267.359Z" fill="#FCCD6B"/>
<path d="M263.005 182.84C263.003 182.013 263.03 181.801 263.143 181.012C264.083 181.438 268.468 181.326 269.928 181.431C273.835 181.71 286.135 182.479 289.06 183.515C287.6 184.145 278.683 182.251 274.968 183.25C270.823 182.81 267.138 182.205 263.005 182.84Z" fill="#DB9D3B"/>
<path d="M184.685 254.215C187.905 255.58 190.277 256.544 193.607 257.603C195.046 258.062 200.663 259.716 201.651 260.228C202.875 261.335 204.922 261.606 206.598 263.039C202.516 262.156 199.012 260.851 195.059 259.779C193.771 258.87 191.244 257.826 189.715 257.149L189.914 257.174C188.44 256.476 185.819 255.259 184.685 254.215Z" fill="#DB9D3B"/>
<path d="M165.993 242.667C165.289 242.127 162.803 240.347 162.657 239.654L163.28 239.985C165.026 239.871 163.709 237.243 169.371 237.6C170.181 237.663 170.856 237.613 171.545 237.944C169.87 238.43 169.051 238.302 167.348 238.303L167.176 238.543C166.558 239.394 166.518 239.517 165.674 240.073L166.28 240.749C165.661 240.996 165.283 240.702 164.462 240.455L164.452 240.482L165.456 241.749C165.761 242.141 165.788 242.222 165.993 242.667Z" fill="#ECB247"/>
<path d="M217.016 215.404C213.137 215.536 209.596 215.192 205.873 215.23C201.181 215.279 197.102 215.453 192.338 215.243C194.316 215.01 196.2 215.196 198.15 215.101C203.721 214.828 209.14 215.044 214.698 215.082C221.546 215.081 228.394 215.162 235.241 215.325C238.39 215.399 245.047 215.583 248.046 216.109L248.041 216.626L247.655 217.281C247.223 218.577 246.328 220.501 246.876 221.688L247.836 222.788L249.626 223.368C238.372 224.14 227.203 225.702 215.942 226.194C213.406 226.305 208.491 228.464 207.113 228.026C208.859 226.591 213.199 226.737 213.715 225.958C212.35 224.64 210.98 225.848 209.794 225.177C208.631 224.518 207.696 224.966 207.516 223.613C208.784 220.278 214.173 217.219 217.016 215.404Z" fill="url(#paint4_linear_7039_51900)"/>
<path d="M245.045 222.361C244.735 222.127 243.836 221.482 243.765 221.184C243.496 220.059 242.159 219.431 241.796 218.726L242.419 217.984C241.775 217.833 241.529 217.972 240.865 217.79C241.862 217.424 246.686 216.78 247.655 217.282C247.223 218.578 246.328 220.502 246.876 221.689L247.836 222.79C246.953 222.814 245.927 222.544 245.045 222.361Z" fill="#844C11"/>
<path d="M249.842 180.543C250.06 182.209 249.995 184.514 249.998 186.251L249.987 186.421C244.781 185.754 232.64 187.21 227.068 187.846C225.146 188.066 220.484 189.198 218.912 189.164C219.148 188.201 223.882 188.806 225.949 185.726C226.079 184.819 226.196 185.184 225.865 184.496C223.704 184.818 217.429 186.597 215.876 186.34C222.411 184.729 227.253 183.931 233.889 182.894C234.957 182.893 249.749 181.566 249.736 181.571L249.842 180.543Z" fill="#C18127"/>
<path d="M265.243 217.325C267.88 216.649 268.253 217.438 269.62 219.583C269.023 220.216 268.31 220.933 267.753 221.586C266.555 222.19 266.033 222.601 264.705 222.524L265.675 221.483C266.238 220.129 265.663 218.682 265.243 217.325Z" fill="#C18127"/>
<path d="M261.493 223.02C262.928 222.642 264.3 222.046 265.675 221.48L264.705 222.522C259.843 224.147 254.638 224.439 249.626 223.367L247.836 222.787L246.877 221.686C247.724 221.854 248.522 222.304 249.233 222.449C252.02 223.021 258.913 224.123 261.493 223.02Z" fill="#181902"/>
<path d="M264.61 215.547C266.41 216.292 267.548 216.662 269.5 217.013L271.305 220.354C270.405 220.699 268.625 221.448 267.753 221.586C268.31 220.933 269.023 220.216 269.62 219.582C268.253 217.438 267.88 216.648 265.243 217.325L264.61 215.547Z" fill="#DB9D3B"/>
<path d="M150.318 338.227C150.587 340.126 149.921 341.462 150 343.208L150.504 341.866C150.79 342.814 150.576 343.311 150.937 344.255C152.199 352.976 157.659 359.509 164.424 364.925C166.035 366.215 171.898 370.101 173.588 370.751L173.94 370.884C177.029 372.093 180.857 374.919 184.475 376.049C189.382 377.582 194.624 379.64 199.569 380.953C203.527 382.004 208.25 382.612 212.162 383.985C211.228 383.944 204.408 382.85 204.629 382.82C205.617 383.435 212.512 385.021 213.666 384.963C214.489 385.157 215.052 385.192 215.739 385.626C215.235 385.641 214.95 385.596 214.596 385.593C212.986 385.581 212.64 386.811 210.885 386.291C209.781 385.965 207.639 385.262 206.58 385.177L206.281 385.388C211.8 387.172 217.574 387.702 223.23 388.567C243.731 391.707 262.598 391.311 283.17 389.98C284.6 389.413 295.438 388.306 298.003 387.89C320.593 384.231 359.728 369.842 363.955 344.34L364.29 344.122C364.273 351.729 364.355 359.354 363.673 366.938C363.368 370.334 362.878 372.56 363.623 375.956L363.96 377.532C364.083 379.133 364.243 380.79 364.248 382.393C364.3 397.485 365.423 412.626 356.305 425.195C350.223 432.757 342.633 438.956 334.02 443.393C332.56 443.521 329.008 445.496 327.365 446.292C323.918 447.959 306.993 454.087 303.685 453.917C302.745 454.491 288.153 457.285 285.825 457.511C273.348 458.718 257.045 459.581 244.651 458.618C219.667 456.68 192.742 451.487 171.321 438.005C164.693 433.834 160.817 429.226 155.904 423.616L154.925 422.103C153.188 419.174 152.51 417.819 151.434 414.586C148.972 407.32 150.037 402.047 149.036 395.419C148.977 387.704 148.643 381.691 151.369 374.294C149.717 367.32 149.013 354.512 149.279 347.199C149.085 344.709 149.627 340.621 150.318 338.227Z" fill="#ECB247"/>
<path d="M150.318 338.227C150.587 340.126 149.921 341.462 150 343.208L150.504 341.866C150.79 342.814 150.576 343.311 150.937 344.255C152.199 352.976 157.659 359.509 164.424 364.925C166.035 366.215 171.898 370.101 173.588 370.751L173.94 370.884C177.029 372.093 180.857 374.919 184.475 376.049C189.382 377.582 194.624 379.64 199.569 380.953C203.527 382.004 208.25 382.612 212.162 383.985C211.228 383.944 204.408 382.85 204.629 382.82C205.617 383.435 212.512 385.021 213.666 384.963C214.489 385.157 215.052 385.192 215.739 385.626C215.235 385.641 214.95 385.596 214.596 385.593C212.986 385.581 212.64 386.811 210.885 386.291C209.781 385.965 207.639 385.262 206.58 385.177L206.281 385.388C211.8 387.172 217.574 387.702 223.23 388.567C243.731 391.707 262.598 391.311 283.17 389.98C282.74 390.425 282.458 390.44 281.87 390.595L281.305 391.22C281.718 393.125 283.235 395.56 283.908 397.407C286.568 404.715 287.403 409.383 283.465 416.436C283.275 416.772 283.315 416.76 283.235 417.186C281.378 417.761 272.023 418.326 269.873 418.479C247.769 420.05 223.468 418.117 202.215 411.868C186.985 407.391 169.661 399.876 159.53 387.318C157.509 384.813 155.877 383.53 154.233 380.481L154.731 380.137C154.71 379.502 153.379 375.554 153.04 375.16C152.799 375.67 152.96 375.449 152.561 375.83C149.893 371.473 150.203 357.429 149.682 351.787C149.531 350.148 149.746 348.808 149.279 347.199C149.085 344.709 149.627 340.621 150.318 338.227Z" fill="url(#paint5_linear_7039_51900)"/>
<path d="M149.999 343.206L150.504 341.863C150.789 342.812 150.576 343.309 150.936 344.253C152.199 352.974 157.659 359.507 164.423 364.923C166.034 366.213 171.898 370.098 173.588 370.748L173.94 370.881C177.028 372.091 180.856 374.917 184.474 376.046C189.381 377.58 194.623 379.638 199.568 380.95C203.527 382.002 208.249 382.609 212.161 383.982C211.227 383.942 204.407 382.848 204.628 382.818C205.616 383.433 212.511 385.019 213.665 384.961C214.488 385.154 215.051 385.189 215.738 385.624C215.234 385.639 214.949 385.593 214.595 385.591C212.985 385.578 212.639 386.808 210.884 386.289C209.78 385.962 207.638 385.26 206.579 385.174L206.28 385.385C203.129 384.984 199.171 383.596 196.087 382.655C178.351 377.241 151.208 364.436 149.999 343.206Z" fill="#C88E3E"/>
<path d="M149.279 347.199C149.746 348.808 149.531 350.148 149.682 351.787C150.203 357.429 149.893 371.474 152.561 375.831L152.164 376.009L151.781 375.241L151.534 375.276C149.412 382.369 149.938 382.941 151.699 390.146C152.396 392.997 157.784 400.815 157.788 400.838C159.059 403.024 162.544 405.923 164.613 407.431C177.799 417.046 196.191 424.319 212.216 427.05C234.453 431.936 253.835 432.067 276.32 431.369L276.608 431.623C275.425 431.941 268.685 431.979 266.478 432.285C266.005 435.804 268.12 442.688 268.283 446.44C268.39 448.905 268.403 451.206 268.995 453.621C269.31 454.903 268.133 454.871 268.573 455.865C271.038 456.116 273.593 455.561 276.028 455.561C283.905 455.556 291.695 454.175 299.425 452.767C300.528 452.567 301.948 452.228 303.05 452.225L302.933 452.534C302.06 452.78 301.893 452.825 301.003 452.906C299.53 453.039 297.92 454.1 296.4 454.667L296.478 454.926C297.785 454.773 303.105 453.561 303.55 453.689L303.685 453.917C302.745 454.492 288.153 457.285 285.825 457.511C273.348 458.718 257.045 459.582 244.651 458.618C219.667 456.68 192.742 451.488 171.321 438.005C164.693 433.834 160.817 429.226 155.904 423.617L154.925 422.103C153.188 419.174 152.51 417.819 151.434 414.586C148.972 407.321 150.037 402.048 149.036 395.419C148.977 387.704 148.643 381.691 151.369 374.295C149.717 367.32 149.013 354.513 149.279 347.199Z" fill="url(#paint6_linear_7039_51900)"/>
<path d="M276.32 431.366C276.818 431.095 290.295 430.003 292.685 429.597C316.34 425.584 343.69 417.344 358.825 397.366C362.325 392.748 362.805 387.822 364.248 382.391C364.3 397.482 365.423 412.623 356.305 425.192C350.223 432.754 342.633 438.953 334.02 443.39C332.56 443.518 329.008 445.494 327.365 446.289C323.918 447.956 306.993 454.085 303.685 453.914L303.55 453.686C303.105 453.558 297.785 454.77 296.478 454.923L296.4 454.664C297.92 454.097 299.53 453.036 301.003 452.903C301.893 452.822 302.06 452.777 302.933 452.531L303.05 452.222C301.948 452.225 300.528 452.564 299.425 452.764C291.695 454.172 283.905 455.553 276.028 455.558C273.593 455.558 271.038 456.112 268.573 455.862C268.133 454.868 269.31 454.9 268.995 453.618C268.403 451.203 268.39 448.902 268.283 446.437C268.12 442.685 266.005 435.801 266.478 432.282C268.685 431.976 275.425 431.938 276.608 431.62L276.32 431.366Z" fill="#ECB247"/>
<path d="M157.787 400.838C157.784 400.815 152.395 392.997 151.698 390.146C149.938 382.94 149.412 382.368 151.533 375.276L151.781 375.24L152.164 376.008L152.56 375.83C152.96 375.449 152.799 375.67 153.039 375.16C153.379 375.554 154.71 379.502 154.731 380.137L154.232 380.481C155.876 383.53 157.508 384.813 159.529 387.317C169.66 399.876 186.985 407.391 202.215 411.868C223.467 418.117 247.769 420.05 269.872 418.479C272.022 418.326 281.377 417.761 283.235 417.186C288.125 416.792 296.37 415.314 301.027 414.051L301.717 414.584C301.41 414.995 301.637 414.842 301.19 414.968C299.577 415.419 294.515 417.826 293.28 418.712C300.397 416.988 305.732 416.368 313.135 414.004C329.457 408.791 346.01 400.155 356.237 385.922C357.107 384.712 357.775 383.013 358.502 381.635L358.617 381.761C358.547 382.602 357.165 384.855 356.625 385.741C344.777 405.23 327.79 412.536 306.952 418.029C305.38 418.978 302.042 419.703 300.21 419.932C298.467 421.809 295.01 422.108 292.485 422.758L292.545 423.009C294.192 422.803 294.987 423.267 296.505 423.252C299.832 423.217 303.39 420.988 306.34 422.989C308.37 423.117 315.812 420.256 318.587 420.085C325.355 418.009 332.64 415.198 338.685 411.486C341.91 408.984 345.267 406.552 348.43 403.975C351.062 401.834 354.135 398.135 356.575 395.667C358.797 393.424 358.287 389.182 361.332 386.908C364.055 384.878 363.825 380.689 363.63 377.655L363.96 377.532C364.082 379.133 364.242 380.79 364.247 382.393C362.805 387.824 362.325 392.751 358.825 397.369C343.69 417.347 316.34 425.586 292.685 429.599C290.295 430.006 276.817 431.098 276.32 431.369C253.835 432.067 234.452 431.936 212.216 427.05C196.191 424.319 177.799 417.046 164.613 407.431C162.544 405.922 159.059 403.024 157.787 400.838Z" fill="url(#paint7_linear_7039_51900)"/>
<path d="M318.588 420.084C325.355 418.009 332.64 415.198 338.685 411.486C341.91 408.984 345.268 406.552 348.43 403.974C351.063 401.833 354.135 398.134 356.575 395.667C358.798 393.423 358.288 389.182 361.333 386.908C364.055 384.877 363.825 380.689 363.63 377.654L363.96 377.531C364.083 379.132 364.243 380.789 364.248 382.393C362.805 387.824 362.325 392.75 358.825 397.368C343.69 417.346 316.34 425.586 292.685 429.599C290.295 430.005 276.818 431.097 276.32 431.368C253.835 432.066 234.453 431.935 212.216 427.049L212.144 426.783C210.781 426.339 208.993 426.293 207.937 425.889C206.436 425.317 205.749 425.237 204.138 424.875L204.196 424.622C205.285 424.293 205.943 424.268 207.472 424.469C211.771 425.031 216.141 426.238 220.406 426.775C220.615 426.657 220.824 426.539 221.033 426.419C225.012 427.014 229.001 427.536 232.998 427.985C234.964 428.201 237.334 428.289 239.18 428.572C244.664 428.971 250.06 429.446 255.568 429.636C276.275 430.352 299.02 426.878 318.588 420.084Z" fill="url(#paint8_linear_7039_51900)"/>
<path d="M252.5 424.784C255.585 424.721 259.305 424.912 262.287 424.613C273.715 423.466 284.995 422.523 296.172 419.684C297.605 419.32 303.47 417.247 304.205 417.215C306.095 417.137 321.06 412.092 321.182 412.117C320.65 413.831 309.652 415.558 306.952 418.028C305.38 418.976 302.042 419.702 300.21 419.93C298.467 421.807 295.01 422.106 292.485 422.756L292.545 423.007C294.192 422.801 294.987 423.266 296.505 423.251C299.832 423.215 303.39 420.987 306.34 422.987C308.37 423.115 315.812 420.254 318.587 420.083C299.02 426.877 276.275 430.351 255.567 429.635C250.06 429.445 244.663 428.97 239.179 428.571L238.956 428.451L239.006 428.177C240.512 427.567 244.168 427.851 246.377 427.392L246.345 427.193C244.028 427.163 242.715 426.686 240.806 426.576C237.308 426.373 234.566 426.691 231.044 425.811L232.764 425.976C231.356 425.404 230.69 425.55 229.142 425.356C230.494 424.282 235.151 425.271 237.154 425.173C242.275 424.925 247.371 424.772 252.5 424.784Z" fill="url(#paint9_linear_7039_51900)"/>
<path d="M293.28 418.71C300.397 416.985 305.732 416.365 313.135 414.001C329.457 408.788 346.01 400.152 356.237 385.92C357.107 384.71 357.775 383.011 358.502 381.633L358.617 381.758C358.547 382.599 357.165 384.853 356.625 385.739C344.777 405.227 327.79 412.533 306.952 418.027C309.652 415.557 320.65 413.831 321.182 412.116C321.06 412.091 306.095 417.136 304.205 417.214C303.47 417.246 297.605 419.319 296.172 419.683C284.995 422.522 273.715 423.466 262.287 424.613C259.305 424.911 255.585 424.72 252.5 424.783C250.477 423.877 242.399 424.971 239.939 424.53C237.763 424.138 230.018 423.691 228.485 423.084C229.75 422.811 237.524 423.385 239.499 423.415C246.565 423.526 253.632 423.405 260.692 423.057C255.215 422.57 249.333 423.142 243.706 422.695C237.096 422.12 230.339 421.636 223.746 420.948C217.067 420.253 209.088 418.464 202.503 417.018C203.215 416.975 202.967 417.068 203.56 416.712C201.983 415.316 192.87 414.3 190.234 411.65C190.759 411.416 190.782 411.298 190.931 410.776L191.447 410.761C196.421 413.939 212.504 417.553 218.856 418.8C237.073 422.376 271.37 423.965 288.997 419.53C290.245 419.217 292.245 419.41 293.28 418.71Z" fill="#7E4411"/>
<path d="M157.788 400.836C161.603 404.432 165.924 408.586 170.742 411.093C171.215 411.339 173.769 411.849 174.561 412.08L174.693 411.929C171.209 409.753 165.851 406.802 162.785 403.91C159.395 400.715 154.695 395.55 152.913 391.261C152.603 390.516 151.773 389.033 151.823 388.34C153.029 388.654 154.394 393.043 155.282 394.275C157.688 397.611 160.621 400.823 163.67 403.584C166.032 405.504 168.016 406.606 170.493 408.777C171.468 409.838 183.434 416.236 185.564 417.067C192.973 419.953 201.62 422.315 209.385 424.099C213.026 424.957 217.807 425.565 221.032 426.418C220.824 426.538 220.615 426.656 220.406 426.774C216.141 426.237 211.771 425.03 207.472 424.468C205.943 424.267 205.285 424.292 204.196 424.621L204.137 424.874C205.749 425.236 206.436 425.316 207.937 425.888C208.993 426.293 210.781 426.338 212.143 426.782L212.216 427.048C196.191 424.317 177.799 417.044 164.613 407.429C162.544 405.921 159.059 403.022 157.788 400.836Z" fill="url(#paint10_linear_7039_51900)"/>
<path d="M170.493 408.777C175.3 410.825 179.516 414.766 184.98 415.248C185.48 415.293 187.547 417.642 188.409 417.594C191.163 418.362 194.408 419.522 197.131 420.217C198.559 420.581 201.059 419.948 202.885 420.972L202.793 421.341L202.448 421.474C202.031 421.642 202.183 421.552 201.914 421.745C203.242 422.092 204.925 422.596 206.279 422.676C207.423 422.744 209.217 422.395 210.338 422.526C211.328 422.639 214.059 423.956 214.97 424.097C219.321 424.767 224.014 425.292 228.424 425.236C228.887 425.229 228.681 425.211 229.142 425.357C230.69 425.55 231.356 425.405 232.764 425.977L231.045 425.811C234.566 426.692 237.308 426.373 240.806 426.577C242.715 426.687 244.029 427.164 246.346 427.194L246.378 427.392C244.169 427.852 240.512 427.568 239.007 428.178L238.956 428.451L239.179 428.572C237.333 428.288 234.964 428.2 232.997 427.985C229 427.535 225.011 427.013 221.032 426.418C217.807 425.565 213.026 424.958 209.385 424.099C201.62 422.315 192.973 419.953 185.564 417.067C183.434 416.236 171.468 409.839 170.493 408.777Z" fill="#C88E3E"/>
<path d="M152.56 375.83C152.96 375.449 152.799 375.67 153.039 375.16C153.379 375.554 154.71 379.502 154.731 380.137L154.232 380.481L153.814 379.934C153.314 380.303 153.599 382.368 153.328 383.653L153.081 383.435C152.453 381.861 151.405 377.713 151.728 376.089L151.876 376.315L152.164 376.008L152.56 375.83Z" fill="#A3651F"/>
<path d="M301.027 414.05C318.217 409.801 332.72 404.949 346.617 393.49C349 391.524 351.247 389.396 353.345 387.125C354.332 386.061 355.707 384.091 356.687 383.383C356.377 384.367 355.11 385.616 354.445 386.465C348.655 393.818 340.84 398.625 333.065 403.468C328.375 406.39 325.822 407.733 320.377 408.995C319.127 409.286 317.897 410.285 316.622 410.488C314.857 411.015 312.495 410.96 311.182 412.411C308.785 411.58 303.022 414.823 301.717 414.582L301.027 414.05Z" fill="#C18127"/>
<path d="M364.275 265.391C364.267 273.146 364.585 285.228 362.665 292.564C363.752 295.796 364.49 300.269 364.24 303.68C364.592 313.365 364.132 322.929 363.192 332.544C363.08 333.719 363.695 336.352 363.892 337.607C364.245 339.76 364.377 341.941 364.29 344.119L363.955 344.338C359.727 369.84 320.592 384.228 298.002 387.887C295.437 388.304 284.6 389.411 283.17 389.978C262.597 391.308 243.731 391.705 223.229 388.565C217.574 387.699 211.799 387.169 206.28 385.385L206.579 385.174C207.638 385.26 209.781 385.962 210.884 386.289C212.64 386.808 212.985 385.578 214.595 385.591C214.95 385.593 215.234 385.638 215.739 385.623C215.051 385.189 214.488 385.154 213.665 384.961C212.512 385.019 205.616 383.432 204.628 382.818C204.408 382.848 211.228 383.942 212.161 383.982C208.249 382.609 203.527 382.002 199.569 380.95C194.624 379.638 189.382 377.58 184.475 376.046C180.857 374.917 177.028 372.091 173.94 370.881L173.588 370.748C171.898 370.098 166.035 366.213 164.423 364.923C157.659 359.507 152.199 352.974 150.936 344.252C150.576 343.309 150.79 342.812 150.504 341.863L149.999 343.206C149.921 341.459 150.586 340.124 150.317 338.224C150.438 337.343 150.611 336.942 150.901 336.118L151.411 333.621C149.497 330.978 148.691 307.567 149.101 302.962C149.314 300.567 150.872 295.889 150.882 293.927C150.893 291.723 150.015 287.994 149.775 285.529C149.113 278.918 148.862 272.272 149.023 265.629C149.623 267.579 149.308 270.576 149.441 272.689C149.919 280.241 149.701 287.743 152.162 294.996C152.553 295.811 152.739 296.067 152.805 296.984L152.549 297.144C152.917 298.344 153.534 299.817 153.817 300.936C152.954 299.739 152.429 299.114 152.256 297.666L152.129 297.593C152.699 309.113 155.013 314.088 163.52 321.798C164.564 322.726 165.601 323.665 166.632 324.609C167.709 326.014 176.461 330.122 176.485 331.069L176.427 331.182C178.894 332.911 181.741 333.792 184.377 334.919C193.271 338.723 202.615 341.213 212.224 342.272C214.038 342.471 215.902 342.993 217.812 343.168C217.67 343.464 217.777 343.346 217.484 343.515C218.59 344.539 222.924 344.498 224.487 344.458L224.117 344.396C226.711 344.378 246.334 344.697 247.383 345.226L247.635 344.872C250.722 345.836 266.88 344.318 269.995 343.457L270.085 343.213C267.255 343.028 251.377 344.393 250.285 343.208C252.622 341.846 264.215 342.616 267.85 342.38C276.23 341.891 284.562 340.766 292.772 339.017C294.39 338.681 298.65 337.87 299.825 336.989C301.07 336.635 302.427 336.312 303.695 336.015C311.92 334.098 319.83 331.518 327.537 327.982C329.487 327.52 337.367 322.995 339.11 321.712L339.082 321.504L339.26 322.162C344.485 319.155 352.602 311.495 355.892 306.473C357.177 304.51 358.82 301.074 359.845 298.901L360.607 296.755C361.172 296.266 361.192 295.741 361.21 295.036L360.942 294.803C360.242 295.367 360.555 295.041 360.177 296.067C359.585 292.017 360.847 287.103 359.632 282.934C359.517 282.54 359.707 279.759 359.97 279.405L360.15 280.768C360.43 279.689 360.677 278.911 360.41 277.779C359.537 274.11 362.475 275.146 361.635 271.59C362.715 269.577 363.132 268.184 363.615 265.93L364.275 265.391Z" fill="url(#paint11_linear_7039_51900)"/>
<path d="M149.023 265.629C149.623 267.579 149.308 270.576 149.441 272.689C149.919 280.241 149.701 287.742 152.162 294.996C152.553 295.811 152.739 296.067 152.805 296.983L152.549 297.144C152.917 298.344 153.534 299.817 153.817 300.936C152.954 299.739 152.429 299.114 152.256 297.666L152.129 297.593C152.699 309.113 155.013 314.087 163.52 321.797C164.564 322.726 165.601 323.665 166.632 324.608C167.709 326.014 176.461 330.122 176.485 331.069L176.427 331.181C178.894 332.911 181.741 333.792 184.377 334.918C193.271 338.723 202.615 341.213 212.224 342.272C214.038 342.47 215.902 342.992 217.812 343.168C217.67 343.464 217.777 343.346 217.484 343.514C214.539 343.376 211.2 342.762 208.247 342.453C206.53 342.272 204.672 341.559 202.867 341.301C204.486 342.352 208.565 342.862 210.677 343.404C208.68 343.753 209.313 344.606 207.568 344.368C206.835 344.267 204.795 343.419 204.28 343.919C210.051 345.475 215.702 345.921 220.786 347.176L221.039 347.578L223.583 347.994C223.698 355.785 223.914 363.51 223.622 371.313C223.589 372.199 222.825 375.198 223.053 375.552C224.369 375.772 225.672 375.878 226.829 376.498C229.145 376.94 233.163 377.313 235.628 377.559C256.465 379.645 276.382 378.292 296.922 374.626C295.642 375.89 284.567 376.847 282.587 378.754C281.817 379.497 280.78 380.064 279.69 380.165L279.517 380.413L279.512 380.197L279.45 380.398L280.34 380.654C279.23 380.787 278.182 380.832 277.16 381.254L277.19 381.585C274.055 382.17 270.402 381.997 267.757 382.481C264.965 382.96 249.943 383.631 249.181 383.992C241.234 383.844 233.097 383.299 225.131 382.915L225.434 382.436C221.17 381.485 215.981 381.379 211.64 380.486C199.843 378.056 188.337 376.079 177.15 371.4C174.769 370.404 172.608 369.081 170.252 368C170.694 368.612 172.774 369.937 173.588 370.748C171.898 370.098 166.035 366.213 164.423 364.923C157.659 359.507 152.199 352.974 150.936 344.252C150.576 343.309 150.79 342.812 150.504 341.863L149.999 343.206C149.921 341.459 150.586 340.124 150.317 338.224C150.438 337.343 150.611 336.941 150.901 336.118L151.411 333.621C149.497 330.978 148.691 307.567 149.101 302.962C149.314 300.567 150.872 295.889 150.882 293.927C150.893 291.723 150.015 287.993 149.775 285.529C149.113 278.918 148.862 272.272 149.023 265.629Z" fill="#A3651F"/>
<path d="M155.137 341.109C171.098 363.01 197.171 371.636 222.852 376.025C223.879 376.201 225.894 376.515 226.829 376.497C229.145 376.939 233.163 377.313 235.628 377.559C256.465 379.644 276.383 378.292 296.923 374.625C295.643 375.89 284.568 376.846 282.588 378.753C281.818 379.496 280.78 380.063 279.69 380.164L279.518 380.412L279.513 380.196L279.45 380.397L280.34 380.653C279.23 380.786 278.183 380.831 277.16 381.253L277.19 381.584C274.055 382.169 270.403 381.996 267.758 382.48L265.905 382.395C254.943 383.291 238.921 382.337 228.153 380.912C225.445 380.696 221.395 380.008 218.656 379.551C215.103 378.455 209.54 377.541 205.602 376.547C196.763 374.233 188.227 370.878 180.172 366.551C171.503 361.86 158.299 352.855 155.142 342.58C154.947 341.945 154.914 341.729 155.137 341.109Z" fill="url(#paint12_linear_7039_51900)"/>
<path d="M228.152 380.914C229.378 380.153 234.724 381.017 236.658 381.202C242.217 381.692 247.793 381.965 253.373 382.018C255.04 382.038 264.978 381.887 265.905 382.397C254.943 383.293 238.921 382.339 228.152 380.914Z" fill="#7E4411"/>
<path d="M151.038 304.827C151.158 302.377 150.811 296.615 152.162 294.996C152.553 295.812 152.739 296.068 152.805 296.984L152.549 297.144C152.917 298.344 153.534 299.817 153.817 300.937C152.954 299.74 152.429 299.115 152.256 297.666L152.129 297.594C152.699 309.114 155.013 314.088 163.52 321.798C164.564 322.727 165.601 323.665 166.632 324.609C167.709 326.014 176.461 330.123 176.485 331.069L176.427 331.182C178.894 332.911 181.741 333.792 184.377 334.919C193.271 338.724 202.615 341.213 212.224 342.273C214.038 342.471 215.902 342.993 217.812 343.169C217.67 343.465 217.777 343.347 217.484 343.515C214.539 343.377 211.2 342.762 208.247 342.453C206.53 342.273 204.672 341.56 202.867 341.301C204.486 342.353 208.565 342.862 210.677 343.404C208.68 343.753 209.313 344.607 207.568 344.368C206.835 344.268 204.795 343.42 204.28 343.919C199.608 343.721 184.113 337.514 179.474 335.255C169.796 330.542 154.37 320.473 151.221 309.718C151.093 309.824 151.172 309.749 151.023 310.002L150.892 310.23L150.644 310.045C150.752 308.335 150.679 307.921 150.246 306.293C150.486 305.612 150.654 305.437 151.038 304.827Z" fill="#C88E3E"/>
<path d="M151.038 304.827C151.159 302.377 150.812 296.615 152.162 294.996C152.554 295.812 152.74 296.068 152.806 296.984L152.55 297.144C152.917 298.344 153.534 299.817 153.818 300.937C152.954 299.74 152.429 299.115 152.256 297.666L152.13 297.594C152.699 309.114 155.013 314.088 163.52 321.798C164.564 322.727 165.602 323.665 166.632 324.609C167.709 326.014 176.461 330.123 176.486 331.069L176.427 331.182C165.681 325.394 153.258 317.903 151.038 304.827Z" fill="#A3651F"/>
<path d="M218.656 379.552C215.669 379.926 205.196 377.16 202.092 376.111C199.895 375.368 195.104 375.225 193.193 373.94C193.505 373.411 193.446 373.682 193.433 373.147C192.047 372.274 189.25 371.752 187.226 370.73C179.506 366.837 172.869 363.035 166.076 357.581C161.524 353.927 155.836 348.052 154.042 342.32C153.671 341.135 153.45 339.165 153.29 337.902C153.997 339.017 154.586 339.898 155.137 341.11C154.914 341.73 154.947 341.946 155.142 342.581C158.299 352.856 171.503 361.861 180.172 366.551C188.227 370.878 196.763 374.234 205.602 376.548C209.54 377.542 215.103 378.455 218.656 379.552Z" fill="#844C11"/>
<path d="M149.023 265.629C149.623 267.579 149.308 270.576 149.441 272.689C149.919 280.241 149.701 287.742 152.162 294.996C150.811 296.614 151.158 302.377 151.038 304.826C150.654 305.436 150.486 305.612 150.246 306.292L149.65 302.686C148.769 308.754 150.179 327.693 151.552 333.566L151.411 333.621C149.497 330.978 148.691 307.567 149.101 302.962C149.314 300.567 150.872 295.889 150.882 293.927C150.893 291.723 150.015 287.993 149.775 285.529C149.113 278.918 148.862 272.272 149.023 265.629Z" fill="#B87E36"/>
<path d="M150.902 336.121L151.182 336.485C151.064 337.404 151.153 336.972 151.329 337.662C151.824 339.607 151.238 342.313 150.937 344.255C150.576 343.312 150.79 342.815 150.504 341.866L150 343.209C149.921 341.462 150.587 340.127 150.318 338.227C150.438 337.346 150.611 336.944 150.902 336.121Z" fill="#B87E36"/>
<path d="M364.275 265.391C364.268 273.146 364.585 285.228 362.665 292.564C363.753 295.796 364.49 300.269 364.24 303.68C362.845 306.566 363.323 309.04 361.108 312.725C352.983 326.245 337.963 333.97 323.853 339.788C300.36 349.305 268.65 351.006 243.427 349.498C238.526 349.167 233.633 348.725 228.752 348.175C227.272 347.997 221.945 347.119 220.786 347.176C215.702 345.921 210.051 345.475 204.281 343.919C204.796 343.419 206.835 344.268 207.568 344.368C209.313 344.606 208.68 343.753 210.677 343.404C208.565 342.862 204.486 342.353 202.867 341.301C204.672 341.559 206.53 342.272 208.248 342.453C211.2 342.762 214.539 343.377 217.484 343.515C218.591 344.539 222.924 344.498 224.487 344.458L224.117 344.396C226.711 344.378 246.334 344.697 247.383 345.226L247.635 344.872C250.723 345.836 266.88 344.318 269.995 343.457L270.085 343.213C267.255 343.028 251.378 344.393 250.285 343.208C252.623 341.846 264.215 342.616 267.85 342.38C276.23 341.891 284.563 340.766 292.773 339.017C294.39 338.681 298.65 337.87 299.825 336.989C301.07 336.635 302.428 336.312 303.695 336.015C311.92 334.098 319.83 331.518 327.538 327.982C329.488 327.52 337.368 322.995 339.11 321.712L339.083 321.504L339.26 322.162C344.485 319.155 352.603 311.495 355.893 306.473C357.178 304.51 358.82 301.074 359.845 298.901L360.608 296.755C361.173 296.266 361.193 295.741 361.21 295.036L360.943 294.803C360.243 295.367 360.555 295.041 360.178 296.067C359.585 292.017 360.848 287.103 359.633 282.934C359.518 282.54 359.708 279.759 359.97 279.405L360.15 280.768C360.43 279.689 360.678 278.911 360.41 277.779C359.538 274.11 362.475 275.146 361.635 271.59C362.715 269.577 363.133 268.184 363.615 265.93L364.275 265.391Z" fill="url(#paint13_linear_7039_51900)"/>
<path d="M327.538 327.982C329.488 327.52 337.368 322.995 339.11 321.712L339.083 321.504L339.26 322.161C336.913 325.412 323.595 331.209 319.54 332.974C317.99 333.646 312.37 335.483 311.54 336.455C310.47 337.202 307.115 337.057 306.585 337.792C307.86 337.812 315.58 338.071 315.99 338.385C315.648 338.508 315.135 338.613 314.775 338.588C311.365 338.362 308.195 341.549 305.458 342.147C290.6 345.379 273.155 348.062 257.9 347.309C259.38 346.707 260.45 346.712 261.868 346.125C259.73 345.003 250.858 346.469 247.383 345.226L247.635 344.872C250.723 345.836 266.88 344.318 269.995 343.457L270.085 343.213C267.255 343.028 251.378 344.393 250.285 343.208C252.623 341.846 264.215 342.616 267.85 342.38C276.23 341.891 284.563 340.766 292.773 339.017C294.39 338.681 298.65 337.87 299.825 336.989C301.07 336.635 302.428 336.312 303.695 336.015C311.92 334.098 319.83 331.518 327.538 327.982Z" fill="url(#paint14_linear_7039_51900)"/>
<path d="M359.845 298.902C360.152 301.056 358.458 302.145 357.975 303.814C355.432 312.603 350.325 316.37 343.797 322.025C343.49 322.288 343.182 322.313 342.807 322.361C339.582 324.434 336.47 326.56 333.01 328.364C328.625 330.653 323.775 331.735 319.76 334.669C320.44 334.17 311.122 336.426 311.54 336.456C312.37 335.485 317.99 333.648 319.54 332.975C323.595 331.211 336.913 325.413 339.26 322.163C344.485 319.156 352.602 311.496 355.892 306.474C357.177 304.512 358.82 301.076 359.845 298.902Z" fill="#ECB247"/>
<path d="M210.677 343.404C208.565 342.862 204.486 342.352 202.867 341.301C204.672 341.559 206.53 342.272 208.248 342.453C211.2 342.761 214.539 343.376 217.484 343.514C218.591 344.538 222.924 344.498 224.487 344.458L224.117 344.395C226.711 344.378 246.334 344.696 247.383 345.226C250.858 346.468 259.73 345.003 261.868 346.125C260.45 346.712 259.38 346.707 257.9 347.309C243.965 347.299 230.642 346.694 216.889 344.533C214.998 344.235 212.87 343.693 211.099 343.457L210.677 343.404Z" fill="#DB9D3B"/>
<path d="M280.412 387.391C297.69 386.563 324.22 379.159 339.462 370.335C346.497 366.262 353.805 360.846 358.155 353.572C358.85 352.41 359.91 348.462 360.3 346.999L360.525 347.044L360.602 348.247C361.477 347.935 361.195 344.043 362.64 343.691L362.602 344.668L363.365 344.068L363.955 344.339C359.727 369.841 320.592 384.229 298.002 387.888C295.437 388.305 284.6 389.412 283.17 389.979C262.597 391.309 243.731 391.706 223.229 388.566C217.574 387.7 211.799 387.171 206.28 385.386L206.579 385.175C207.638 385.261 209.781 385.963 210.884 386.29C212.64 386.809 212.985 385.579 214.595 385.592C214.95 385.594 215.234 385.64 215.739 385.625C215.051 385.19 214.488 385.155 213.665 384.962C215.437 385.017 217.754 385.391 219.53 385.705C225.365 386.734 231.057 387.233 236.949 387.748C238.506 388.22 242.457 388.428 244.239 388.536C256.305 389.301 268.417 388.917 280.412 387.391Z" fill="url(#paint15_linear_7039_51900)"/>
<path d="M360.438 336.789C358.775 346.667 347.815 356.97 340.018 362.527C334.888 366.181 329.338 369.205 323.488 371.534C305.38 378.843 268.305 386.405 249.38 384.028C249.313 384.02 249.248 384.005 249.182 383.993C249.944 383.631 264.965 382.961 267.758 382.482C270.403 381.997 274.055 382.171 277.19 381.586L277.16 381.255C278.183 380.833 279.23 380.788 280.34 380.655L279.45 380.399L279.513 380.198L279.518 380.414L279.69 380.165C280.78 380.065 281.818 379.498 282.588 378.755C284.568 376.847 295.643 375.891 296.923 374.626C301.613 373.334 306.388 372.388 311.058 371.005C328.788 365.749 350.068 355.075 359.553 338.423C359.858 337.886 360.153 337.341 360.438 336.789Z" fill="#C18127"/>
<path d="M280.34 380.654L280.808 380.607C285.398 380.105 291.653 378.717 296.305 378.006C298.175 377.723 301.95 376.639 303.59 376.551L303.493 376.789C296.728 378.797 284.395 380.988 277.19 381.585L277.16 381.254C278.183 380.832 279.23 380.787 280.34 380.654Z" fill="#844C11"/>
<path d="M253.277 387.249C257.252 388.685 279.05 384.802 280.965 386.147C280.79 386.84 280.827 386.823 280.412 387.392C268.417 388.918 256.305 389.302 244.238 388.537C242.457 388.429 238.506 388.221 236.949 387.749C242.723 387.224 247.907 387.693 253.277 387.249Z" fill="#ECB247"/>
<path d="M213.666 384.964C212.512 385.021 205.616 383.435 204.628 382.82C204.408 382.85 211.228 383.945 212.162 383.985C213.724 383.719 224.637 386.397 227.103 386.329C228.798 386.284 231.567 386.126 233.192 386.213C237.489 386.522 241.438 386.198 245.698 385.865C247.882 385.694 250.863 386.07 253.143 385.965C255.393 385.862 255.043 386.999 257.28 385.32C258.828 385.31 258.56 386.53 259.638 386.101L259.113 385.576C260.045 385.463 260.583 386.065 261.75 386.321C261.17 386.816 249.666 386.454 247.936 386.979C249.281 386.987 252.13 386.901 253.278 387.25C247.908 387.694 242.724 387.225 236.95 387.749C231.058 387.235 225.365 386.736 219.531 385.707C217.755 385.393 215.437 385.019 213.666 384.964Z" fill="#DB9D3B"/>
<path d="M149.023 265.629C148.901 264.163 149.456 260.993 149.698 259.387C150.308 267.614 149.79 270.886 155.865 277.731C167.203 290.503 183.588 297.221 199.625 301.837C202.12 302.547 206.653 304.126 209.069 304.088C222.626 307.102 240.345 308.894 254.188 309.035C258.333 309.052 262.478 309.007 266.623 308.902C268.218 308.864 271.265 308.656 272.74 308.741L274.318 308.814C273.215 308.995 267.91 308.975 267.473 309.725C265.945 312.348 269.635 327.903 268.875 332.667C268.665 333.995 268.008 335.428 267.535 336.685C269.655 336.703 272.81 335.862 274.518 336.537C278.135 336.572 285.915 335.372 289.465 334.843L290.783 335.076C290.498 335.242 290.298 335.36 289.983 335.4C288.285 335.626 286.953 337.558 285.588 338.384C285.283 338.57 283.23 338.495 282.358 339.079C281.925 339.25 268.645 340.901 267.565 340.906L267.95 341.205C274.788 341.177 283.393 339.687 290.23 338.715C293.325 338.276 296.683 337.307 299.825 336.989C298.65 337.87 294.39 338.68 292.773 339.017C284.563 340.766 276.23 341.89 267.85 342.38C264.215 342.616 252.623 341.845 250.285 343.208C251.378 344.392 267.255 343.027 270.085 343.213L269.995 343.456C266.88 344.317 250.723 345.836 247.635 344.872L247.383 345.226C246.334 344.696 226.711 344.377 224.117 344.395L224.487 344.458C222.924 344.498 218.591 344.538 217.484 343.514C217.777 343.346 217.67 343.464 217.812 343.168C215.902 342.992 214.038 342.47 212.224 342.272C202.615 341.213 193.271 338.723 184.378 334.918C181.741 333.791 178.894 332.91 176.427 331.181L176.485 331.068C176.461 330.122 167.709 326.013 166.632 324.608C165.602 323.664 164.564 322.726 163.52 321.797C155.013 314.087 152.699 309.113 152.129 297.593L152.256 297.666C152.429 299.114 152.954 299.739 153.817 300.936C153.534 299.817 152.917 298.343 152.549 297.144L152.805 296.983C152.739 296.067 152.553 295.811 152.162 294.995C149.702 287.742 149.919 280.24 149.442 272.688C149.308 270.575 149.623 267.579 149.023 265.629Z" fill="url(#paint16_linear_7039_51900)"/>
<path d="M166.632 324.609C165.601 323.665 164.564 322.727 163.519 321.798C155.012 314.088 152.698 309.114 152.129 297.594L152.255 297.667C152.428 299.115 152.953 299.74 153.817 300.937C154.573 301.865 154.616 302.917 155.305 303.449L155.783 303.406L156.275 302.784C178.328 331.368 226.826 337.848 260.482 337.331C264.325 337.271 270.85 337.331 274.517 336.538C278.135 336.573 285.915 335.373 289.465 334.844L290.782 335.077C290.497 335.243 290.297 335.361 289.982 335.401C288.285 335.627 286.952 337.559 285.587 338.385C285.282 338.571 283.23 338.495 282.357 339.08C281.925 339.251 268.645 340.902 267.565 340.907L267.95 341.206C274.787 341.178 283.392 339.688 290.23 338.716C293.325 338.277 296.682 337.308 299.825 336.99C298.65 337.87 294.39 338.681 292.772 339.017C284.562 340.767 276.23 341.891 267.85 342.381C264.215 342.616 252.622 341.846 250.285 343.209C251.377 344.393 267.255 343.028 270.085 343.214L269.995 343.457C266.88 344.318 250.722 345.836 247.635 344.873L247.382 345.227C246.334 344.697 226.711 344.378 224.117 344.396L224.487 344.459C222.923 344.499 218.59 344.539 217.484 343.515C217.777 343.347 217.669 343.465 217.812 343.169C215.902 342.993 214.038 342.471 212.224 342.273C202.614 341.213 193.27 338.724 184.377 334.919C181.741 333.792 178.894 332.911 176.427 331.182L176.485 331.069C176.461 330.123 167.708 326.014 166.632 324.609Z" fill="#844C11"/>
<path d="M166.632 324.609C169.298 325.39 171.402 327.37 173.769 328.382C185.642 333.451 197.892 336.975 210.751 338.323C213.754 338.636 216.982 339.414 220.058 339.778C232.4 341.124 244.808 341.771 257.222 341.711C258.837 341.708 266.66 341.681 267.95 341.206C274.787 341.179 283.392 339.688 290.23 338.717C293.325 338.278 296.682 337.309 299.825 336.99C298.65 337.871 294.39 338.682 292.772 339.018C284.562 340.767 276.23 341.892 267.85 342.381C264.215 342.617 252.622 341.846 250.285 343.209C251.377 344.394 267.255 343.029 270.085 343.214L269.995 343.458C266.88 344.319 250.722 345.837 247.635 344.873L247.383 345.227C246.334 344.698 226.711 344.379 224.117 344.396L224.487 344.459C222.924 344.499 218.59 344.539 217.484 343.515C217.777 343.347 217.67 343.465 217.812 343.169C215.902 342.993 214.038 342.471 212.224 342.273C202.615 341.214 193.271 338.724 184.377 334.919C181.741 333.793 178.894 332.912 176.427 331.182L176.485 331.07C176.461 330.123 167.709 326.015 166.632 324.609Z" fill="#C18127"/>
<path d="M153.817 300.937C153.534 299.818 152.916 298.345 152.549 297.145L152.805 296.984C153.43 298.571 155.251 301.311 156.275 302.784L155.783 303.407L155.305 303.45C154.616 302.917 154.573 301.866 153.817 300.937Z" fill="#7E4411"/>
<path d="M362.645 264.548C363.082 264.051 363.225 263.817 363.76 263.426C363.655 264.41 363.597 264.949 363.615 265.933C363.132 268.187 362.715 269.58 361.635 271.593C362.475 275.149 359.537 274.112 360.41 277.782C360.677 278.914 360.43 279.692 360.15 280.771L359.97 279.408C359.707 279.762 359.517 282.543 359.632 282.937C360.847 287.105 359.585 292.02 360.177 296.07C360.555 295.044 360.242 295.37 360.942 294.805L361.21 295.039C361.192 295.744 361.172 296.269 360.607 296.758L359.845 298.904C358.82 301.077 357.177 304.513 355.892 306.476C352.602 311.498 344.485 319.158 339.26 322.164L339.082 321.507L339.11 321.715C337.367 322.998 329.487 327.523 327.537 327.985C319.83 331.521 311.92 334.101 303.695 336.018C302.427 336.314 301.07 336.638 299.825 336.992C296.682 337.311 293.325 338.28 290.23 338.719C283.392 339.69 274.787 341.181 267.95 341.208L267.565 340.91C268.645 340.905 281.925 339.253 282.357 339.083C283.23 338.498 285.282 338.573 285.587 338.387C286.952 337.562 288.285 335.629 289.982 335.403C290.297 335.363 290.497 335.245 290.782 335.08L289.465 334.846C285.915 335.376 278.135 336.575 274.517 336.54C272.81 335.865 269.655 336.706 267.535 336.688C268.007 335.431 268.665 333.998 268.875 332.67C269.635 327.907 265.945 312.351 267.472 309.728C267.91 308.978 273.215 308.998 274.317 308.817L272.74 308.745C271.265 308.659 268.217 308.868 266.622 308.905C262.477 309.011 258.332 309.056 254.187 309.038C240.344 308.898 222.625 307.106 209.068 304.092C210.091 303.697 227.477 307.379 229.992 307.264C231.625 307.189 232.166 306.345 233.43 306.022L233.061 305.643C234.302 305.758 235.748 305.934 236.977 305.934C245.192 305.409 258.645 306.001 265.872 304.691C267.415 304.262 269.312 304.272 270.937 304.225C273.702 304.144 275.65 303.296 278.247 304.4C280.035 304.706 285.49 304.742 286.457 303.201C288.875 302.822 293.89 301.762 296.46 302.016C296.952 302.064 296.875 302.365 297.33 302.322C301.582 301.918 321.497 296.625 323.745 295.287C323.297 294.785 323.39 295.066 323.277 294.484C325.042 292.933 326.915 294.585 328.275 293.781C331.777 291.713 334.52 289.638 338.685 288.611C339.53 288.403 339.792 286.38 340.1 286.222C343.592 284.428 344.96 282.937 347.62 280.261C347.092 281.182 346.77 281.243 346.41 282.397C346.52 283.145 346.337 282.876 346.795 283.326C348.522 283.075 348.967 282.339 350.095 281.042L350.547 281.762C352.085 280.977 352.962 280.525 354.595 279.935C359.092 273.636 360.645 271.864 362.645 264.548Z" fill="#ECB247"/>
<path d="M289.465 334.846C291.563 334.261 295.735 333.609 298.01 333.149C302.52 332.213 306.995 331.114 311.425 329.849C328.828 324.802 348.068 315.609 358.57 299.807C359.205 298.853 359.615 297.147 360.608 296.758L359.845 298.904C358.82 301.077 357.178 304.513 355.893 306.476C352.603 311.498 344.485 319.157 339.26 322.164L339.083 321.507L339.11 321.715C337.368 322.997 329.488 327.523 327.538 327.984C319.83 331.521 311.92 334.101 303.695 336.018C302.428 336.314 301.07 336.638 299.825 336.992C296.683 337.311 293.325 338.279 290.23 338.719C283.393 339.69 274.788 341.181 267.95 341.208L267.565 340.91C268.645 340.905 281.925 339.253 282.358 339.083C283.23 338.498 285.283 338.573 285.588 338.387C286.953 337.562 288.285 335.629 289.983 335.403C290.298 335.363 290.498 335.245 290.783 335.079L289.465 334.846Z" fill="#C18127"/>
<path d="M282.358 339.083C289.23 338.513 297.635 336.786 304.418 335.288C306.15 334.904 307.4 334.173 308.933 333.631C310.875 332.944 312.558 333.541 314.16 331.854C313.345 331.636 312.573 332.429 311.155 332.409C312.945 331.666 315.34 330.981 317.23 330.384L317.633 330.464C321.748 331.245 323.695 327.982 327.538 327.984C319.83 331.521 311.92 334.101 303.695 336.018C302.428 336.314 301.07 336.638 299.825 336.992C296.683 337.311 293.325 338.279 290.23 338.719C283.393 339.69 274.788 341.181 267.95 341.208L267.565 340.91C268.645 340.905 281.925 339.253 282.358 339.083Z" fill="#A3651F"/>
<path d="M347.62 280.258C347.092 281.179 346.77 281.239 346.41 282.394C346.52 283.142 346.337 282.873 346.795 283.322C348.522 283.071 348.967 282.336 350.095 281.038L350.547 281.759C347.045 285.885 340.305 288.806 335.657 291.76C334.075 292.766 329.965 293.56 328.145 294.433C316.725 298.494 304.585 301.777 292.652 303.93C289.525 304.495 284.737 305.458 281.637 305.471C278.647 306.44 276.512 306.826 273.342 306.901C271.847 306.937 269.492 306.781 268.932 308.397C269.94 308.42 271.847 308.325 272.665 308.44L272.74 308.741C271.265 308.656 268.217 308.864 266.622 308.902C262.477 309.007 258.332 309.052 254.187 309.035C240.344 308.894 222.625 307.102 209.068 304.088C210.091 303.694 227.477 307.376 229.992 307.26C231.625 307.185 232.166 306.342 233.43 306.018L233.061 305.639C234.302 305.755 235.748 305.93 236.977 305.93C245.192 305.406 258.645 305.998 265.872 304.688C267.415 304.259 269.312 304.269 270.937 304.221C273.702 304.141 275.65 303.292 278.247 304.397C280.035 304.703 285.49 304.738 286.457 303.197C288.875 302.818 293.89 301.759 296.46 302.012C296.952 302.06 296.875 302.361 297.33 302.319C301.582 301.915 321.497 296.621 323.745 295.284C323.297 294.782 323.39 295.063 323.277 294.481C325.042 292.93 326.915 294.581 328.275 293.778C331.777 291.71 334.52 289.634 338.685 288.608C339.53 288.399 339.792 286.377 340.1 286.219C343.592 284.424 344.96 282.933 347.62 280.258Z" fill="#FCCD6B"/>
<path d="M265.873 304.69C267.415 304.26 269.313 304.27 270.938 304.223C273.703 304.142 275.65 303.294 278.248 304.398C277.32 305.091 267.425 306.085 265.498 306.444C263.78 306.321 260.393 306.456 258.568 306.474C254.228 306.524 249.887 306.532 245.547 306.497C243.073 306.479 239.352 306.466 236.978 305.932C245.193 305.407 258.645 306 265.873 304.69Z" fill="#ECB247"/>
<path d="M362.645 264.548C363.083 264.051 363.225 263.817 363.76 263.426C363.655 264.41 363.598 264.949 363.615 265.933C363.133 268.187 362.715 269.58 361.635 271.593C359.91 274.434 357.723 277.721 355.32 280.063C342.983 292.085 323.998 300.061 307.513 304.029C297.945 306.333 282.413 308.476 272.665 308.443C271.848 308.328 269.94 308.423 268.933 308.401C269.493 306.785 271.848 306.94 273.343 306.905C276.513 306.83 278.648 306.443 281.638 305.474C284.738 305.462 289.525 304.498 292.653 303.933C304.585 301.78 316.725 298.497 328.145 294.436C329.965 293.563 334.075 292.77 335.658 291.764C340.305 288.81 347.045 285.888 350.548 281.762C352.085 280.977 352.963 280.525 354.595 279.935C359.093 273.636 360.645 271.864 362.645 264.548Z" fill="url(#paint17_linear_7039_51900)"/>
<path d="M363.618 220.316C364.673 228.478 363.848 244.49 362.243 252.49C364.008 256.643 364.27 260.93 364.275 265.39L363.615 265.929C363.598 264.946 363.655 264.406 363.76 263.422C363.225 263.814 363.083 264.047 362.645 264.544C360.645 271.86 359.093 273.632 354.595 279.931C352.963 280.521 352.085 280.973 350.548 281.758L350.095 281.038C348.968 282.336 348.523 283.071 346.795 283.322C346.338 282.873 346.52 283.141 346.41 282.393C346.77 281.239 347.093 281.179 347.62 280.258C344.96 282.933 343.593 284.424 340.1 286.218C339.793 286.376 339.53 288.399 338.685 288.608C334.52 289.634 331.778 291.71 328.275 293.778C326.915 294.581 325.043 292.929 323.278 294.48C323.39 295.063 323.298 294.782 323.745 295.284C321.498 296.621 301.583 301.914 297.33 302.318C296.875 302.361 296.953 302.06 296.46 302.012C293.89 301.759 288.875 302.818 286.458 303.197C284.653 303.119 281.773 303.064 280.113 302.657L279.53 302.841L279.178 302.622L278.895 302.77C279.395 302.409 279.235 302.63 279.435 302.155C278.05 301.791 272.518 302.09 270.75 302.133L255.03 302.502C250.918 302.595 246.827 302.195 242.773 302.015C238.986 301.844 237.029 302.233 233.107 301.322C230.275 300.662 226.373 300.845 223.424 300.097C220.067 299.397 219.366 300.486 216.538 297.999L216.262 297.753C215.776 298.052 215.745 298.049 215.196 298.223L214.739 297.954L214.925 297.623C213.707 297.407 213.12 298.719 210.729 298.433L210.744 298.351L211.36 298.122C210.685 297.673 209.242 297.573 208.405 297.276C206.586 296.629 208.055 297.073 207.487 295.954C205.895 295.467 203.861 295.991 201.924 295.565C197.548 294.603 193.416 292.272 189.089 291.383C189.595 290.819 190.019 290.691 190.702 290.372C204.068 295.437 217.253 298.009 231.383 299.618C235.984 300.042 241.218 300.529 245.837 300.715C249.027 301.588 272.133 300.489 275.858 299.854L275.625 299.819C280.215 298.735 286.053 298.463 289.923 297.397L289.928 297.199C294.103 296.461 293.405 296.777 296.865 294.071C298.64 292.683 302.66 292.189 305.215 291.348C303.165 291.725 302.743 291.853 300.7 291.921C297.353 292.365 293.268 293.451 289.8 294.036C282.975 295.123 276.095 295.841 269.193 296.19L268.89 296.089L268.96 295.926C277.53 295.301 285.773 294.639 294.235 292.847C295.563 292.566 297.375 291.878 297.998 290.573C296.288 284.454 296.453 277.09 293.653 271.155C293.043 269.862 293.078 268.188 292.673 266.73C291.535 266.881 290.215 267.332 289.04 267.473C288.453 267.543 287.693 267.408 287.175 267.483C281.958 268.238 276.713 268.698 271.465 269.144C270.835 269.217 269.835 268.961 269.265 269.024C267.32 269.245 266.553 269.762 264.61 269.064C266.095 268.645 272.453 268.58 274.895 268.291C292.3 267.325 310.215 263.696 326.475 257.17C339.39 251.762 353.103 243.669 360.065 231.067C362 227.562 362.06 223.724 363.618 220.316Z" fill="#ECB247"/>
<path d="M289.923 297.398C291.49 297.31 293.68 296.808 295.283 296.484C317.758 291.939 343.76 284.51 356.858 263.797C356.52 265.197 355.84 266.036 355.318 267.348C354.608 269.138 354.468 270.129 352.59 270.854C351.675 275.422 341.345 281.621 337.463 284.196C328.658 290.019 318.005 292.586 307.968 295.412C302.223 297.031 297.56 298.775 291.568 299.554C290.19 299.732 282.79 301.519 281.755 301.943L282.775 301.827C281.798 302.194 281.123 302.392 280.113 302.658L279.53 302.841L279.178 302.623L278.895 302.771C279.395 302.41 279.235 302.63 279.435 302.156C278.05 301.792 272.518 302.091 270.75 302.134L255.03 302.502C250.918 302.595 246.827 302.196 242.773 302.016C238.986 301.845 237.029 302.234 233.107 301.323C230.275 300.663 226.373 300.846 223.424 300.098C220.067 299.398 219.366 300.487 216.538 298L216.262 297.754C215.776 298.053 215.745 298.05 215.196 298.223L214.739 297.955L214.925 297.624C213.707 297.408 213.12 298.72 210.729 298.434L210.744 298.351L211.36 298.123C210.685 297.674 209.242 297.573 208.405 297.277C206.586 296.63 208.055 297.074 207.487 295.954C205.895 295.468 203.861 295.992 201.924 295.566C197.548 294.604 193.416 292.273 189.089 291.384C189.595 290.82 190.019 290.692 190.702 290.373C204.068 295.437 217.253 298.01 231.383 299.619C235.984 300.043 241.218 300.53 245.837 300.716C249.027 301.589 272.133 300.49 275.858 299.855L275.625 299.82C280.215 298.735 286.053 298.464 289.923 297.398Z" fill="#A3651F"/>
<path d="M300.7 291.924C304.898 290.644 309.545 289.894 314.015 288.395C334.28 281.609 348.123 273.942 360.378 256.047C359.235 259.131 358.63 261.016 356.858 263.8C343.76 284.513 317.758 291.942 295.283 296.487C293.68 296.81 291.49 297.312 289.923 297.4L289.928 297.202C294.103 296.464 293.405 296.78 296.865 294.075C298.64 292.687 302.66 292.193 305.215 291.352C303.165 291.728 302.743 291.856 300.7 291.924Z" fill="#C18127"/>
<path d="M350.095 281.041L350.635 280.366C352.53 277.944 354.137 277.063 355.972 274.918C357.697 272.902 361.46 263.922 362.747 262.582L363.075 262.883C362.97 263.742 362.965 263.742 362.645 264.547C360.645 271.863 359.092 273.635 354.595 279.935C352.962 280.524 352.085 280.976 350.547 281.762L350.095 281.041Z" fill="#F9D17B"/>
<path d="M155.624 264.45C155.422 264.016 155.364 263.421 155.277 262.924C155.935 263.253 155.655 263.118 156.157 263.856L155.968 263.203L156.612 262.578C159.256 266.576 163.752 271.049 167.728 273.696C171.772 277.28 182.793 283.203 187.962 284.767C208.996 293.767 235.459 296.831 258.183 296.661C259.805 296.648 268.07 296.729 269.193 296.191C276.095 295.843 282.975 295.125 289.8 294.038C293.268 293.453 297.353 292.367 300.7 291.922C302.743 291.855 303.165 291.727 305.215 291.35C302.66 292.191 298.64 292.685 296.865 294.073C293.405 296.779 294.103 296.462 289.928 297.2L289.923 297.399C286.053 298.465 280.215 298.736 275.625 299.821L275.858 299.856C272.133 300.491 249.027 301.59 245.837 300.717C241.218 300.531 235.984 300.044 231.383 299.62C217.253 298.011 204.068 295.438 190.702 290.374C179.487 285.731 162.831 277.321 156.464 265.73C156.084 265.038 156.369 265.045 155.624 264.45Z" fill="url(#paint18_linear_7039_51900)"/>
<path d="M231.383 299.621C231.644 299.443 232.05 299.169 232.375 299.184C238.646 299.478 244.915 300.251 251.195 300.527L251.222 300.612C249.96 300.645 246.93 300.607 245.836 300.718C241.217 300.532 235.983 300.045 231.383 299.621Z" fill="#7E4411"/>
<path d="M155.623 264.449C156.368 265.044 156.083 265.036 156.463 265.729C162.83 277.319 179.486 285.729 190.701 290.373C190.018 290.691 189.594 290.819 189.088 291.384C184.076 290.029 179.956 287.469 174.958 286.061C172.858 285.471 168.554 282.269 166.795 280.903C162.811 277.809 158.923 274.388 156.747 269.715C156.007 268.201 155.463 267.978 155.259 266.081C155.394 265.616 155.518 264.939 155.623 264.449Z" fill="#A3651F"/>
<path d="M167.728 273.697L167.847 273.059L167.304 272.617C167.489 271.9 167.725 271.686 168.173 271.112C168.285 270.118 167.926 268.71 168.037 268.13C168.826 263.969 167.967 259.464 169.101 255.36C169.434 254.156 169.218 253.277 169.858 252.301C170.711 252.13 170.661 252.143 171.523 252.286C172.463 253.957 171.344 255.659 172.058 258.289C173.338 263.003 174.09 270.549 172.255 275.137C171.755 275.27 171.562 275.446 171.458 276.013C173.134 276.756 175.921 278.696 177.596 279.72C179.649 280.978 186.688 283.457 187.961 284.767C182.792 283.204 171.771 277.281 167.728 273.697Z" fill="#A3651F"/>
<path d="M233.062 305.642C227.77 306.149 206.152 301.766 200.311 299.902C199.918 299.776 199.974 299.661 199.273 299.555C198.039 299.367 193.392 297.942 192.584 297.254C195.523 298.135 198.232 299.101 201.275 299.437C202.474 299.568 204.603 300.748 205.837 300.808C209.918 301.004 213.918 301.566 217.966 302.055L217.652 302.406C218.871 303.732 230.861 304.833 233.293 304.994L232.929 304.776L232.999 304.475C234.562 303.651 250.538 304.816 253.815 304.582C255.25 304.482 265.088 304.254 265.873 304.69C258.645 306 245.193 305.408 236.978 305.933C235.749 305.933 234.303 305.757 233.062 305.642Z" fill="#DB9D3B"/>
<path d="M155.09 234.895C157.743 236.869 158.295 238.206 161.754 240.634C162.846 241.525 164.228 242.596 165.248 243.524C165.43 243.956 165.836 244.865 166.203 245.159C171.536 249.438 178.069 252.033 183.784 255.705C184.275 256.021 184.066 255.808 184.298 256.086C182.774 256.202 173.688 251.067 171.876 250.131C167.523 247.883 156.302 239.28 155.09 234.895Z" fill="#B87E36"/>
<path d="M155.259 266.083C155.241 266.038 155.223 265.995 155.205 265.95C154.15 263.947 153.249 261.864 152.512 259.723C152.812 258.714 152.397 258.042 152.658 256.832C153.133 257.133 156.061 261.764 156.612 262.579L155.968 263.204L156.157 263.857C155.655 263.119 155.935 263.254 155.277 262.926C155.364 263.423 155.422 264.017 155.624 264.452C155.518 264.941 155.395 265.619 155.259 266.083Z" fill="#844C11"/>
<path d="M160.576 247.34L160.747 247.7C160.424 250.5 161.641 260.687 158.478 261.377C157.982 260.316 157.92 260.035 157.811 258.865L157.773 258.416C157.432 254.699 158.131 254.92 159.966 252.473C159.969 252.468 160.032 248.798 160.576 247.34Z" fill="#A3651F"/>
<path d="M291.503 89.2285C309.048 78.2473 333.453 76.6094 353.255 80.858C368.935 84.2218 361.158 88.5185 354.86 97.0289C351.603 101.43 344.645 114.107 340.468 117.258C336.085 122.297 327.35 130.393 321.5 133.485C315.195 138.004 306.24 141.585 298.73 144.464C290.533 147.607 277.675 150.29 270.428 155.248C268.173 156.789 266.765 161.196 265.648 163.563C265.438 166.606 263.578 169.643 264.02 172.923C264.578 173.429 264.293 173.21 265.223 173.35C264.718 173.439 264.138 173.413 263.988 173.765C263.215 175.599 263.345 178.949 263.143 181.01C263.03 181.798 263.003 182.011 263.005 182.838L262.99 186.593C263.013 192.785 263.018 198.921 263.528 205.095C263.808 208.495 263.783 212.248 264.61 215.545L265.243 217.323C265.663 218.679 266.238 220.126 265.675 221.48C264.3 222.046 262.928 222.641 261.493 223.02C258.913 224.122 252.02 223.02 249.233 222.449C248.522 222.303 247.724 221.854 246.877 221.686C246.328 220.499 247.224 218.575 247.655 217.279L248.041 216.624L248.047 216.107C249.902 209.786 250.05 193.347 249.988 186.418L249.998 186.249C249.996 184.511 250.06 182.207 249.842 180.541L249.262 173.174C249.24 172.9 249.214 172.626 249.185 172.353C248.63 166.985 245.227 156.029 241.24 152.359C237.194 148.635 228.757 146.111 223.627 144.157C220.244 142.846 216.893 141.454 213.575 139.984C192.404 130.493 178 116.642 166.896 96.2812C165.437 93.6058 160.886 89.1793 163.367 86.3037C165.859 83.1807 174.966 81.7642 178.588 81.3652C207.909 78.1331 240.509 93.017 250.003 122.698C250.643 124.7 251.453 126.783 251.838 128.843C252.603 130.864 255.585 142.286 255.503 144.128C255.823 145.413 256.245 149.699 256.763 150.314C257.273 149.75 259.69 137.083 260.24 134.955L260.348 134.466C263.13 121.915 268.72 109.791 277.56 100.405C278.875 99.0083 281.643 96.1773 283.208 95.1732C284.008 94.0802 290.143 89.9175 291.503 89.2285Z" fill="url(#paint19_linear_7039_51900)"/>
<path d="M291.502 89.2285C309.047 78.2473 333.452 76.6094 353.255 80.858C368.935 84.2218 361.157 88.5185 354.86 97.0289C351.602 101.43 344.645 114.107 340.467 117.258C336.085 122.297 327.35 130.393 321.5 133.485C320.392 132.448 308.117 138.174 305.245 138.989C293.91 142.206 291.747 137.544 291.95 126.745C292.022 122.74 296.632 113.032 298.142 108.503L298.262 108.14L297.495 108.302L297.2 107.799C296.462 108.292 295.547 108.947 294.77 109.333C293.025 109.218 288.557 112.82 287.08 113.934L286.74 113.84C284.977 111.275 289.492 105.088 287.88 101.648C287.392 100.615 286.49 99.8396 285.397 99.5158C283.905 99.0681 282.432 99.3509 281.082 100.056L280.682 100.269C279.862 100.694 279.462 100.916 278.685 100.67C278.647 100.54 278.612 100.411 278.577 100.281C279.662 99.1348 282.672 96.287 283.207 95.1732C284.007 94.0802 290.142 89.9175 291.502 89.2285Z" fill="url(#paint20_linear_7039_51900)"/>
<path d="M298.263 108.144C302.578 105.058 305.685 102.419 310.783 100.227C309.903 100.965 309.617 101.16 308.615 101.718C306.115 108.859 305.792 116.746 304.557 124.173C303.66 129.575 304 131.405 308.285 134.991C315.903 133.43 327.4 127.688 333.945 123.259C335.933 121.915 337.307 118.758 340.467 117.261C336.085 122.3 327.35 130.397 321.5 133.488C320.393 132.451 308.117 138.178 305.245 138.992C293.91 142.209 291.748 137.547 291.95 126.749C292.023 122.744 296.632 113.036 298.142 108.506L298.263 108.144Z" fill="#8CA831"/>
<path d="M291.502 89.2303C291.625 89.2183 291.747 89.2082 291.87 89.1942C292.89 89.0767 291.847 89.2193 292.665 89.018C292.85 88.9723 299.752 89.5983 300.362 89.7273C301 89.8613 301.665 90.0724 302.207 90.4398C302.755 90.8097 303.167 91.3415 303.32 91.9933C303.675 93.511 298.545 100.888 298.407 102.435C298.36 102.969 298.282 103.477 298.087 103.977L298.432 104.505C300.155 104.802 303.372 102.093 304.88 101.295C304.76 101.359 306.675 101.263 306.775 101.256C304.53 102.711 298.65 106.091 297.2 107.801C296.462 108.294 295.547 108.948 294.77 109.335C293.025 109.22 288.557 112.822 287.08 113.935L286.74 113.841C284.977 111.277 289.492 105.09 287.88 101.65C287.392 100.617 286.49 99.8414 285.397 99.5176C283.905 99.0699 282.432 99.3527 281.082 100.057L280.682 100.271C279.862 100.695 279.462 100.918 278.685 100.672C278.647 100.542 278.612 100.413 278.577 100.283C279.662 99.1366 282.672 96.2888 283.207 95.175C284.007 94.082 290.142 89.9193 291.502 89.2303Z" fill="#8CA831"/>
<path d="M306.775 101.256C309.133 99.9305 326.725 90.0619 328.238 91.0861C327.468 91.7442 324.28 93.0558 323.143 93.6704C319.175 95.8158 314.61 97.8871 310.783 100.226C305.685 102.418 302.578 105.057 298.263 108.143L297.495 108.305L297.2 107.802C298.65 106.091 304.53 102.711 306.775 101.256Z" fill="#637E11"/>
<path d="M163.367 86.3069C165.859 83.184 174.966 81.7675 178.588 81.3685C207.909 78.1364 240.509 93.0203 250.003 122.701C250.643 124.703 251.453 126.786 251.838 128.846L251.51 129.071L251.623 129.599L251.253 129.636C249.333 128.674 247.615 126.796 245.88 125.994C238.53 122.593 232.984 117.544 226.333 113.16C224.975 112.265 225.165 111.933 223.521 111.665C224.937 113.96 231.679 118.893 233.265 121.74C233.217 121.99 233.17 122.24 233.122 122.491C233.417 122.92 235.196 125.319 235.539 125.602C236.676 127.129 237.889 128.706 238.953 130.275C239.331 130.835 240.867 133.037 241.107 133.517C241.358 134.369 241.937 135.779 241.914 136.535C241.818 139.589 239.936 141.664 237.905 143.662C237.216 143.693 236.525 143.712 235.834 143.716C231.566 143.723 227.745 142.366 223.851 140.973C210.323 136.074 198.133 127.161 188.169 116.869C183.817 112.374 181.434 110.22 178.398 104.641C175.767 100.685 173.043 96.6981 170.252 92.8737C167.42 88.9936 162.23 91.4753 163.367 86.3069Z" fill="#8CA831"/>
<path d="M233.122 122.488C232.226 121.672 231.266 120.537 230.425 119.634C221.464 110.015 210.497 102.365 198.782 96.5221C198.25 96.2563 198.466 96.4797 198.03 95.9594C198.313 95.9549 198.4 95.9431 198.661 95.9715C201.999 96.3359 221.885 109.131 223.387 111.408C223.44 111.488 223.476 111.577 223.521 111.662C224.937 113.957 231.678 118.89 233.265 121.737C233.217 121.987 233.169 122.238 233.122 122.488Z" fill="#637E11"/>
<path d="M265.647 163.566C265.437 166.61 263.577 169.647 264.02 172.927C264.577 173.433 264.292 173.213 265.222 173.354C264.717 173.443 264.137 173.417 263.987 173.769C263.215 175.602 263.345 178.953 263.142 181.013C263.03 181.802 263.002 182.014 263.005 182.842L262.99 186.597C263.012 192.789 263.017 198.925 263.527 205.099C263.807 208.498 263.782 212.251 264.61 215.548L265.242 217.326C265.662 218.683 266.237 220.13 265.675 221.484C264.3 222.05 262.927 222.645 261.492 223.024L260.937 222.817L261.057 222.648C261.927 222.437 263.025 222.273 263.66 221.606C264.67 220.549 264.992 217.423 263.872 216.436C262.662 217.715 263.43 219.04 261.967 219.895C259.885 219.683 259.98 218.265 259.712 216.635C259.442 214.997 259.175 213.347 258.86 211.718C258.72 213.375 258.68 215.088 258.597 216.737C258.462 219.424 258.357 219.289 259.902 221.253C259.595 221.697 259.79 221.511 259.215 221.705C259.242 221.728 258.837 221.488 258.697 221.16C258.357 220.362 258.165 219.988 258.092 218.963C257.52 210.907 257.787 202.806 257.265 194.775C257.377 194.683 258.422 193.895 258.422 193.888C258.41 192.198 258.332 186.63 258.352 185.404C258.392 182.912 258.412 180.921 259.17 178.778C260.18 175.915 260.552 173.33 261.877 170.641C262.485 169.404 264.06 169.142 264.142 167.76C264.287 166.577 264.895 164.823 265.22 163.609L265.647 163.566Z" fill="#8CA831"/>
<path d="M260.24 134.957C260.705 137.228 258.205 146.501 258.18 149.667C258.157 152.494 259.48 153.844 258.162 156.277C257.28 156.337 256.035 156.53 255.26 156.221C253.417 154.061 254.817 146.765 255.502 144.131C255.822 145.416 256.245 149.702 256.762 150.317C257.272 149.753 259.69 137.086 260.24 134.957Z" fill="#273605"/>
<path d="M235.538 125.6L236.339 125.281C237.901 126.754 238.71 128.322 239.855 130.142C243.043 135.539 245.995 140.747 248.503 146.507C248.919 147.462 249.813 148.026 249.839 149.25C249.3 149.913 249.646 149.699 248.713 149.817C247.299 149.184 247.858 149.307 247.466 148.196C246.1 144.329 243.475 136.611 241.107 133.515C240.866 133.035 239.331 130.832 238.953 130.272C237.889 128.703 236.676 127.127 235.538 125.6Z" fill="#405806"/>
<path d="M249.998 186.249L250.268 185.449C251.545 186.905 250.14 214.805 248.235 216.682L248.041 216.625L248.047 216.107C249.902 209.786 250.05 193.347 249.988 186.418L249.998 186.249Z" fill="#273605"/>
<path d="M297.2 107.801L297.495 108.304C292.845 111.285 289.265 114.627 285.248 118.369C284.095 119.442 281.273 122.605 280.23 123.247C281.17 120.428 288.998 114.328 291.483 112.033C292 111.556 294.418 109.752 294.77 109.334C295.548 108.948 296.463 108.294 297.2 107.801Z" fill="#405806"/>
<path d="M355.338 430.427C357.063 429.953 357.665 428.086 358.51 426.555L358.715 426.58C358.783 427.345 358.875 428.924 358.525 429.511C357.37 431.456 358.58 432.27 358.498 433.228L357.258 434.084C356.823 435.337 356.503 435.939 355.903 437.101C355.13 437.196 354.79 437.169 354.143 437.613C353.608 438.587 353.47 439.347 352.263 439.407C350.54 439.493 349.173 441.716 347.568 442.304C346.713 442.617 346.685 442.898 346.305 443.712C345.613 443.91 345 444.005 344.295 444.128C344.115 444.721 343.795 446.058 343.213 446.324C339.833 447.868 336.57 449.63 333.138 451.065C332.408 451.371 332.01 451.429 331.76 452.117C332.168 452.764 332.158 452.538 332.22 453.214C330.423 452.812 330.5 453.309 329.155 454.514C328.205 454.391 327.955 454.388 326.993 454.433C326.55 454.76 326.475 454.986 326.235 455.477C325.21 455.329 323.958 455.081 323.083 455.728C323.045 456.481 323.1 456.291 322.878 456.991L321.675 457.161C321.14 457.48 321.053 457.776 320.75 458.326L320.633 458.542C319.853 458.389 319.62 458.088 319.013 457.566L318.783 457.362L318.39 457.44C318.128 458.193 318.168 457.784 318.618 458.745C315.368 459.553 311.24 460.836 307.933 461.702C307.71 461.759 307.363 462.668 306.655 462.831L306.098 462.201C305.153 461.953 302.558 463.659 301.483 463.654C300.933 463.649 300.835 463.049 299.695 463.366C299.518 463.775 299.373 464.119 299.213 464.54L299.08 464.902C298.193 465.077 298.27 464.086 296.873 463.792C295.123 465.04 296.855 466.131 293.255 465.266C292.868 465.173 291.23 466.42 291 466.428C289.095 466.488 287.27 465.845 285.678 467.246C285.105 467.718 280.32 466.766 279.905 467.065C277.588 468.739 277.835 467.436 275.403 467.524L274.965 468.37C273.975 468.711 272.738 467.201 271.82 467.697C271.863 468.483 271.945 468.91 271.7 469.663L271.268 469.771C270.635 469.281 270.348 468.684 269.92 467.999C269.328 467.783 269.07 467.918 268.44 468.051L268.275 468.347C268.548 468.757 268.74 469.05 268.978 469.482C268.658 469.57 268.405 469.62 268.098 469.477C265.923 468.465 264.12 469.788 261.973 469.816C261.173 469.826 258.888 468.987 257.923 469.113C258.058 469.095 256.573 469.966 256.173 470.117L254.575 469.201C252.4 469.178 250.178 469.274 248.009 469.442C243.235 469.816 238.376 469.003 233.633 469.309C233.755 469.301 232.51 469.858 232.506 469.861C231.396 469.492 230.071 468.518 229.055 467.856C228.265 468.109 228.315 468.415 227.732 469.326C226.416 469.934 226.425 467.597 223.977 467.597C223.199 468.154 223.391 468.177 222.968 469.254L222.346 469.238C221.566 468.606 221.814 468.762 221.584 467.459L221.118 467.276C220.211 467.459 220.046 467.662 219.382 468.247L218.97 467.484L218.603 467.399L218.321 467.602C218.265 468.046 218.199 468.45 218.124 468.895L217.762 468.945L217.19 468.046C215.768 467.512 214.428 467.406 212.922 467.196L212.625 466.515C211.336 467.108 210.462 467.647 209.059 467.8L208.713 467.231C208.057 466.887 206.204 467.411 204.826 467.233L204.698 466.618C203.866 466.495 202.909 466.99 202.013 467.113C201.24 467.221 199.672 465.612 199.455 465.609C196.661 465.569 193.871 465.434 191.08 465.306C190.989 465.303 189.474 464.083 189.252 463.945C188.44 463.441 188.338 463.431 187.474 463.594L187.007 464.48C186.449 464.608 184.295 463.411 183.469 463.072C182.652 463.313 182.793 463.418 182.132 464.242C181.49 463.323 178.234 461.86 177.251 462.244L177.559 463.15L177.357 463.403L176.807 463.255C176.734 462.685 176.853 462.916 176.496 462.542C175.875 462.693 175.693 462.793 175.068 462.728C175.319 462.01 175.317 462.291 175.192 461.581C173.514 461.067 172.873 461.855 171.27 461.421C171.442 460.954 172.363 461.217 173.256 460.771L173.066 460.158C172.375 459.596 172.437 459.613 171.556 459.501C168.188 460.763 169.751 458.994 167.727 458.773C167.056 459.134 166.687 459.42 165.925 459.435C165.746 458.888 165.787 458.979 165.506 458.454L165.083 458.469L164.499 459.127L164.253 459.139C163.764 458.585 162.552 457.365 162.396 456.77L163.168 456.579L163.374 456.077L163.119 455.676C161.539 455.543 160.471 455.136 158.965 454.654C158.703 454.885 158.826 454.755 158.568 455.131L158.362 455.437C157.474 455.804 157.908 455.784 157.018 455.553C156.535 454.885 156.622 455.236 156.639 454.496C156.89 454.448 157.67 454.318 157.859 454.235L157.885 453.859C156.942 452.764 154.064 453.781 153.065 452.91C153.703 452.345 153.634 452.631 153.73 452.026C152.464 450.762 151.294 450.767 149.961 451.693C148.905 451.163 149.819 450.799 148.648 450.184L147.754 450.465C147.383 450.235 147.279 450.232 147.137 449.936C145.169 445.847 144.213 448.294 141.759 445.89C141.333 445.473 141.228 445.546 140.817 445.576L140.56 446.505L140.206 446.56C138.524 445.029 138.346 444.999 138.222 443.047C137.426 442.663 136.821 442.886 135.93 442.841C135.119 442.801 134.443 440.652 134.108 439.982C133.318 439.97 132.707 439.887 131.965 440.216L132.211 440.03L132.196 440.434C132.713 440.702 133.237 440.943 133.651 441.362L133.646 441.33C132.7 441.598 132.801 441.536 131.785 441.345C130.902 440.163 131.719 440.381 131.017 439.028C129.709 439.003 128.383 439.176 127.517 438.035C128.205 437.495 128.926 437.063 129.284 436.295C127.957 433.831 126.628 436.732 126.196 432.076C125.838 431.78 125.371 431.306 125.033 431.062C123.736 430.136 123.842 426.796 122.966 425.398C121.948 423.772 120.599 423.159 120.207 420.9C120.123 420.416 120.001 420.534 119.354 420.142L119.33 419.924C120.15 419.691 120.434 419.608 121.206 419.269C121.162 418.355 119.104 418.027 118.735 416.887C119.242 416.491 120.516 416.676 121.177 416.744L121.493 416.345L121.439 416.656L121.386 416.172C120.663 415.336 119.715 415.678 118.426 414.766C118.083 413.657 118.259 414.38 118.817 413.394C119.225 412.668 118.185 413.306 118.718 412.197C119.407 413.223 119.288 412.806 119.168 414.182C119.88 414.463 119.554 414.495 120.175 414.265C120.234 413.818 120.291 413.371 120.345 412.924L121.122 412.829C121.379 412.219 121.289 412.535 121.099 411.717C120.295 411.17 120.411 411.353 119.254 411.321C118.702 410.723 119.982 410.078 119.676 408.901L118.671 408.66L118.527 408.181L118.901 408.043C119.914 408.339 119.988 409.11 121.091 409.862L121.396 409.632C121.747 407.885 120.772 407.363 119.356 406.605L119.098 406.469C119.58 405.666 119.683 406.705 120.771 406.188L120.706 405.581C120.354 405.332 119.997 405.119 119.613 404.921L119.671 404.466L120.635 404.276C120.902 403.703 120.483 402.183 120.347 401.397L120.542 401.128C121.533 401.329 120.751 402.004 121.517 402.461C122.603 400.19 120.565 399.51 120.582 397.562C120.587 397.015 122.364 395.434 122.459 394.789C122.727 392.964 122.791 391.167 123.23 389.375C123.518 389.277 125.164 388.698 125.218 388.575C125.802 387.272 126.41 385.505 126.864 384.172C126.855 384.2 128.528 383.276 128.697 383.181C128.818 382.448 128.902 382.764 128.634 382.172L127.841 382.97C127.521 382.443 127.727 382.682 127.034 382.398C127.35 381.735 127.763 381.402 128.461 381.362L129.283 382.303L129.713 382.102C129.695 381.241 129.623 381.505 129.871 380.727C131.148 380.089 131.803 380.072 131.972 378.613L131.493 378.428L131.276 378.345C132.046 378.036 132.998 378.312 133.857 378.458C134.799 377.564 133.68 377.788 134.397 376.35L134.987 376.224C136.175 376.836 136.144 377.655 137.115 378.207C138.02 377.983 138.064 378.034 138.785 377.396L138.799 376.949C137.814 376.312 137.501 376.299 137.852 375.145C138.541 374.409 138.489 374.425 139.437 374.111C140.06 374.297 139.807 375.629 140.47 376.771L141.162 376.565L141.324 376.114L140.946 375.484C141.846 374.547 144.359 374.522 145.742 374.382C146.323 373.892 146.5 373.057 146.811 372.259C147.774 372.427 148.368 372.756 148.819 371.827C148.654 370.933 148.619 371.169 147.659 370.426C147.548 369.069 149.031 368.203 148.768 366.561C148.672 365.964 148.79 365.432 148.905 364.847L149.233 364.629L149.453 364.907C148.637 369.47 151.286 375.343 148.673 380.847C148.344 381.542 148.744 394.706 149.035 395.416C150.037 402.045 148.971 407.318 151.434 414.583C150.101 415.939 147.095 414.297 147.055 418.642C146.929 432.325 157.21 440.361 168.848 444.896C170.489 445.534 172.272 446.834 173.994 447.496C177.542 448.711 182.05 449.78 185.68 451.08C186.925 451.525 189.19 451.181 190.381 452.423L189.737 452.621L189.855 452.892C189.913 452.905 190.477 453.043 190.553 453.038C192.37 453.013 194.189 454.928 195.924 455.651C202.644 458.451 209.995 459.272 217.141 460.281C221.44 460.888 225.967 461.968 230.286 462.264C237.683 462.766 245.104 463.074 252.508 463.529C254.35 463.539 256.285 463.403 258.123 463.388C271.605 463.27 285.07 462.788 298.155 459.227C301.2 458.399 304.673 457.995 307.803 457.161C323.34 453.201 337.85 445.933 350.348 435.854C351.71 434.742 353.413 432.255 355.065 430.683L355.338 430.427Z" fill="url(#paint21_linear_7039_51900)"/>
<path d="M155.904 423.613C160.816 429.223 164.692 433.831 171.321 438.002C192.741 451.484 219.666 456.677 244.65 458.614C257.045 459.578 273.347 458.715 285.825 457.508C288.152 457.282 302.745 454.488 303.685 453.914C306.992 454.084 323.917 447.955 327.365 446.289C329.007 445.493 332.56 443.518 334.02 443.39C332.112 444.675 329.225 446.332 327.03 446.916L326.802 447.955C325.88 448.37 325.765 448.568 324.817 448.068C322.892 448.465 322.687 450.011 321.105 450.666C315.447 453.01 308.667 455.211 302.827 457.048C296.395 459.069 289.142 459.27 282.547 460.75C282.41 460.783 278.465 461.403 278.485 461.4C274.327 462.153 243.653 462.04 241.908 461.202C240.961 460.878 238.317 460.836 237.183 460.848C234.583 460.876 233.411 459.927 230.779 459.613C225.546 458.991 220.537 458.409 215.358 457.37C210.56 456.408 203.13 453.746 198.616 453.048C184.877 446.788 169.293 442.949 159.226 430.608C157.458 428.442 157.151 426.266 155.755 424.349C155.807 423.887 155.763 424.133 155.904 423.613Z" fill="#7E4411" fill-opacity="0.627451"/>
<path d="M356.305 425.195L357.113 426.126L357.733 425.266L357.983 425.298C357.243 426.844 356.258 429.065 355.338 430.431L355.065 430.687C353.413 432.258 351.71 434.745 350.348 435.857C337.85 445.936 323.34 453.204 307.803 457.165C304.673 457.998 301.2 458.402 298.155 459.23C285.07 462.792 271.605 463.273 258.123 463.391C256.285 463.406 254.35 463.542 252.508 463.532C245.104 463.078 237.684 462.769 230.286 462.267C225.967 461.971 221.44 460.892 217.141 460.284C209.995 459.275 202.644 458.455 195.925 455.654C194.189 454.931 192.371 453.016 190.554 453.041C190.477 453.046 189.914 452.908 189.855 452.896L189.737 452.625L190.382 452.426C189.19 451.184 186.925 451.528 185.68 451.084C182.05 449.783 177.542 448.714 173.994 447.5L173.771 447.216C173.264 446.581 172.975 446.195 172.31 445.69C171.364 444.972 165.687 443.022 165.609 442.164L165.956 441.991C166.895 442.445 171.192 444.357 171.798 444.864C175.044 447.577 176.481 447.178 180.133 448.278C182.922 449.437 185.599 450.019 188.489 450.858C190.388 451.427 193.303 453.342 195.119 453.794C201.428 455.358 209.187 458.698 215.571 458.678C223.773 458.65 234.015 462.546 241.909 461.205C243.654 462.044 274.328 462.157 278.485 461.404C278.465 461.406 282.41 460.786 282.548 460.754C289.143 459.273 296.395 459.072 302.828 457.052C308.668 455.215 315.448 453.014 321.105 450.669C322.688 450.014 322.893 448.468 324.818 448.072C325.765 448.571 325.88 448.373 326.803 447.959L327.03 446.92C329.225 446.335 332.113 444.679 334.02 443.394C342.633 438.956 350.223 432.757 356.305 425.195Z" fill="#A3651F" fill-opacity="0.180392"/>
<path d="M151.434 414.586C152.51 417.819 153.187 419.174 154.924 422.103L154.396 422.11C153.961 422.73 153.605 423.064 153.621 423.804C155.454 426.435 153.996 427.406 155.546 430.094C157.375 433.261 160.133 434.709 162.331 437.39C162.921 438.12 163.196 438.409 163.89 439.066L163.473 439.274C164.604 440.956 171.053 443.777 173.141 444.921C180.141 448.754 187.59 448.93 194.661 453.141C195.865 453.131 197.449 453.164 198.617 453.051C203.131 453.748 210.561 456.411 215.359 457.372C220.538 458.411 225.546 458.994 230.78 459.616C233.411 459.93 234.584 460.879 237.184 460.851C238.317 460.838 240.962 460.881 241.909 461.205C234.014 462.545 223.772 458.65 215.571 458.678C209.187 458.698 201.428 455.357 195.119 453.793C193.303 453.342 190.388 451.427 188.489 450.857C185.599 450.019 182.922 449.437 180.133 448.277C176.481 447.178 175.044 447.577 171.798 444.864C171.192 444.357 166.895 442.444 165.956 441.99L165.609 442.163C165.686 443.022 171.363 444.972 172.309 445.689C172.975 446.194 173.264 446.58 173.771 447.215L173.994 447.499C172.272 446.836 170.489 445.536 168.848 444.899C157.21 440.364 146.929 432.327 147.055 418.644C147.095 414.3 150.101 415.941 151.434 414.586Z" fill="#844C11" fill-opacity="0.247059"/>
<path d="M194.66 453.14C187.59 448.928 180.14 448.753 173.14 444.92C171.052 443.776 164.603 440.955 163.472 439.273L163.889 439.065C163.195 438.408 162.92 438.119 162.331 437.389C160.132 434.708 157.375 433.26 155.546 430.093C153.995 427.405 155.453 426.433 153.621 423.803C153.605 423.063 153.96 422.729 154.395 422.109L154.924 422.102L155.904 423.615C155.763 424.134 155.807 423.889 155.755 424.35C157.151 426.268 157.458 428.444 159.226 430.61C169.293 442.95 184.877 446.79 198.616 453.049C197.448 453.162 195.864 453.13 194.66 453.14Z" fill="#844C11" fill-opacity="0.270588"/>
<defs>
<linearGradient id="paint0_linear_7039_51900" x1="176.729" y1="237.599" x2="329.352" y2="202.73" gradientUnits="userSpaceOnUse">
<stop stop-color="#DFA441"/>
<stop offset="1" stop-color="#FDCB68"/>
</linearGradient>
<linearGradient id="paint1_linear_7039_51900" x1="209.203" y1="221.819" x2="193.352" y2="181.732" gradientUnits="userSpaceOnUse">
<stop stop-color="#E3A63C"/>
<stop offset="1" stop-color="#F1C976"/>
</linearGradient>
<linearGradient id="paint2_linear_7039_51900" x1="305.448" y1="189.069" x2="293.863" y2="233.996" gradientUnits="userSpaceOnUse">
<stop stop-color="#A76510"/>
<stop offset="1" stop-color="#DCA250"/>
</linearGradient>
<linearGradient id="paint3_linear_7039_51900" x1="219.074" y1="266.364" x2="220.157" y2="262.798" gradientUnits="userSpaceOnUse">
<stop stop-color="#DC9A41"/>
<stop offset="1" stop-color="#E7B652"/>
</linearGradient>
<linearGradient id="paint4_linear_7039_51900" x1="240.156" y1="213.564" x2="209.722" y2="228.426" gradientUnits="userSpaceOnUse">
<stop stop-color="#9F6B2A"/>
<stop offset="1" stop-color="#CB9138"/>
</linearGradient>
<linearGradient id="paint5_linear_7039_51900" x1="172.312" y1="408.977" x2="258.964" y2="354.609" gradientUnits="userSpaceOnUse">
<stop stop-color="#935316"/>
<stop offset="1" stop-color="#E0A439"/>
</linearGradient>
<linearGradient id="paint6_linear_7039_51900" x1="177.451" y1="452.587" x2="257.043" y2="395.139" gradientUnits="userSpaceOnUse">
<stop stop-color="#915214"/>
<stop offset="1" stop-color="#E0A136"/>
</linearGradient>
<linearGradient id="paint7_linear_7039_51900" x1="226.404" y1="394.074" x2="218.293" y2="425.867" gradientUnits="userSpaceOnUse">
<stop stop-color="#884700"/>
<stop offset="1" stop-color="#A56315"/>
</linearGradient>
<linearGradient id="paint8_linear_7039_51900" x1="280.215" y1="395.792" x2="293.894" y2="432.106" gradientUnits="userSpaceOnUse">
<stop stop-color="#E8A231"/>
<stop offset="1" stop-color="#FFECA1"/>
</linearGradient>
<linearGradient id="paint9_linear_7039_51900" x1="265.69" y1="419.403" x2="267.398" y2="430.145" gradientUnits="userSpaceOnUse">
<stop stop-color="#C37910"/>
<stop offset="1" stop-color="#F7C157"/>
</linearGradient>
<linearGradient id="paint10_linear_7039_51900" x1="189.466" y1="410.13" x2="191.047" y2="426.131" gradientUnits="userSpaceOnUse">
<stop stop-color="#C28637"/>
<stop offset="1" stop-color="#DAA554"/>
</linearGradient>
<linearGradient id="paint11_linear_7039_51900" x1="236.004" y1="304.382" x2="319.329" y2="391.593" gradientUnits="userSpaceOnUse">
<stop stop-color="#A96111"/>
<stop offset="1" stop-color="#FFCB58"/>
</linearGradient>
<linearGradient id="paint12_linear_7039_51900" x1="212.229" y1="380.724" x2="226.32" y2="348.86" gradientUnits="userSpaceOnUse">
<stop stop-color="#733500"/>
<stop offset="1" stop-color="#A86007"/>
</linearGradient>
<linearGradient id="paint13_linear_7039_51900" x1="282.32" y1="293.372" x2="300.497" y2="347.028" gradientUnits="userSpaceOnUse">
<stop stop-color="#E49D3E"/>
<stop offset="1" stop-color="#FFDD7F"/>
</linearGradient>
<linearGradient id="paint14_linear_7039_51900" x1="277.375" y1="338.605" x2="279.37" y2="347.447" gradientUnits="userSpaceOnUse">
<stop stop-color="#D68E1F"/>
<stop offset="1" stop-color="#FFCC5C"/>
</linearGradient>
<linearGradient id="paint15_linear_7039_51900" x1="285.635" y1="359.734" x2="296.552" y2="390.042" gradientUnits="userSpaceOnUse">
<stop stop-color="#EFAE39"/>
<stop offset="1" stop-color="#FFF1AC"/>
</linearGradient>
<linearGradient id="paint16_linear_7039_51900" x1="167.355" y1="322.618" x2="249.34" y2="276.749" gradientUnits="userSpaceOnUse">
<stop stop-color="#96571C"/>
<stop offset="1" stop-color="#D99A30"/>
</linearGradient>
<linearGradient id="paint17_linear_7039_51900" x1="313.685" y1="278.695" x2="319.97" y2="299.832" gradientUnits="userSpaceOnUse">
<stop stop-color="#FFC952"/>
<stop offset="1" stop-color="#FFF2AA"/>
</linearGradient>
<linearGradient id="paint18_linear_7039_51900" x1="220.373" y1="301.906" x2="236.06" y2="263.08" gradientUnits="userSpaceOnUse">
<stop stop-color="#733400"/>
<stop offset="1" stop-color="#C67E12"/>
</linearGradient>
<linearGradient id="paint19_linear_7039_51900" x1="215.296" y1="212.995" x2="248.318" y2="89.3886" gradientUnits="userSpaceOnUse">
<stop stop-color="#545906"/>
<stop offset="1" stop-color="#6F8D22"/>
</linearGradient>
<linearGradient id="paint20_linear_7039_51900" x1="295.952" y1="109.315" x2="363.887" y2="101.277" gradientUnits="userSpaceOnUse">
<stop stop-color="#85A22A"/>
<stop offset="1" stop-color="#C3DF55"/>
</linearGradient>
<linearGradient id="paint21_linear_7039_51900" x1="281.713" y1="361.258" x2="179.954" y2="482.119" gradientUnits="userSpaceOnUse">
<stop stop-color="#E2A54E" stop-opacity="0"/>
<stop offset="1" stop-color="#6C441A" stop-opacity="0.0313725"/>
</linearGradient>
</defs>
</svg>
